<svg width="114" height="120" viewBox="0 0 114 120" fill="none" xmlns="http://www.w3.org/2000/svg">
<g clip-path="url(#clip0_179_3275)">
<path d="M101.023 8.51631L94.5706 10.6457L94.0997 10.9498C93.0558 10.3415 91.9773 9.7332 90.8738 9.12486L91.0754 8.51631L89.7982 1.82479L83.8837 0.303955L79.3808 5.47464L79.247 6.0832C77.9816 5.77903 76.7467 5.77903 75.4814 6.0832L75.3476 5.47464L70.8459 0.303955L64.9299 1.82479L63.6524 8.51631L63.8531 9.12486C62.752 9.7332 61.6722 10.3415 60.6289 10.9498L60.1575 10.6457L53.7061 8.51631L49.4052 12.7747L51.5556 19.1621L52.0241 19.7707C51.3367 20.6832 50.6918 21.8999 50.1443 22.8124H49.539L42.8839 24.0291L41.2718 29.808L46.4456 34.3705H46.984C46.9049 35.8913 46.9049 37.1081 46.984 38.3248H46.4456L41.2718 42.8873L42.8839 48.9706L49.539 50.1874L50.1443 49.8833C50.6918 51.0999 51.3367 52.0124 52.0241 53.229L51.5556 53.5331L49.4052 59.9205L53.7061 64.483L60.1575 62.0499L60.6289 61.7455C61.6722 62.3538 62.752 62.9624 63.8531 63.5708L63.6524 64.179L64.9299 70.8705L70.8459 72.3913L75.3476 67.2206L75.4814 66.9165H79.247L79.3808 67.2206L83.8837 72.3913L89.7985 70.8705L91.0754 64.179L90.8738 63.5708C91.9773 62.9624 93.0558 62.3538 94.1 61.7455L94.5706 62.0499L101.023 64.483L105.324 59.9205L103.174 53.5331L102.703 53.229C103.393 52.0124 104.038 51.0999 104.585 49.8833L105.19 50.1874L111.844 48.9706L113.457 42.8873L108.282 38.3248H107.744C107.823 37.1081 107.823 35.8913 107.744 34.3705H108.282L113.457 29.808L111.844 24.0291L105.19 22.8124H104.585C104.038 21.8999 103.392 20.6832 102.703 19.7707L103.174 19.1621L105.324 12.7747L101.023 8.51631ZM92.4195 21.2915C100.735 29.504 100.735 43.1916 92.4195 51.4041C84.1048 59.6166 70.6239 59.6166 62.3079 51.4041C53.9951 43.1916 53.9951 29.504 62.3079 21.2915C70.6239 13.079 84.1048 13.079 92.4195 21.2915Z" fill="#37D214"/>
<path d="M94.5706 19.1625C85.0678 9.73328 69.6596 9.73328 60.1571 19.1625C50.655 28.5916 50.655 44.1043 60.1571 53.5334C69.6593 62.9626 85.0672 62.9626 94.5706 53.5334C104.073 44.1043 104.073 28.5916 94.5706 19.1625ZM90.0671 19.4669L83.4803 25.8543C80.7891 24.3335 77.714 23.7251 74.7422 24.6376L70.5082 16.1208C77.0235 13.9916 84.3533 15.2086 90.0671 19.4669ZM94.3686 23.7249C98.6464 29.5041 99.7402 36.8042 97.5277 43.1917L89.2604 38.9333C89.9208 35.8916 89.369 32.8502 87.7819 30.4168L94.3686 23.7249ZM81.6651 31.9377C84.0415 34.371 84.0415 38.3252 81.6651 40.7586C79.2895 43.1919 75.4388 43.1919 73.0632 40.7586C70.6877 38.3252 70.6877 34.371 73.0632 31.9377C75.4388 29.8085 79.2895 29.8085 81.6651 31.9377ZM65.1306 19.1625L69.3646 27.3752C69.176 27.3752 68.9448 27.6793 68.7623 27.6793C66.6636 29.8084 65.5138 32.5459 65.2675 35.2834L56.1242 36.8043C56.0573 31.0251 58.083 25.5502 62.3079 21.2918C63.1839 20.3793 64.1542 19.7708 65.1306 19.1625ZM94.7047 48.6668C94.0139 49.5793 93.2949 50.4919 92.4195 51.4044C88.1952 55.6627 82.6323 57.7919 77.0965 57.4877L78.4409 48.3627C81.1784 48.3627 83.8715 47.1458 85.9672 45.0166C86.1503 44.7124 86.2689 44.7126 86.4378 44.4084L94.7047 48.6668ZM66.2073 41.3668C66.7974 42.5834 67.6491 43.7999 68.7623 45.0166C69.8725 46.2333 71.1652 46.8418 72.5249 47.4501L71.1135 56.8792C67.8955 55.6625 64.8538 53.8377 62.3079 51.4044C59.762 48.9711 57.9857 45.9293 57.0002 42.5835L66.2073 41.3668Z" fill="#37D214"/>
</g>
<g clip-path="url(#clip1_179_3275)">
<path d="M58.1426 64.2426L54.0773 66.8993L53.808 67.1959C52.9751 66.9676 52.1183 66.7457 51.2443 66.5283L51.2717 66.0709L49.1597 61.6837L44.7949 61.7203L42.6351 66.1194L42.6545 66.5644C41.7246 66.5868 40.8716 66.8138 40.0535 67.2565L39.8492 66.8607L35.7895 64.1166L31.9827 66.2544L32.3302 71.1112L32.5807 71.4946C31.932 72.1172 31.298 72.7358 30.6891 73.3477L30.3076 73.2243L25.4602 72.9392L23.2721 76.6711L25.9315 80.6877L26.3669 81.022C26.0598 81.7786 25.838 82.7375 25.6275 83.4684L25.2094 83.5796L20.8363 85.6432L20.7849 89.9311L25.1971 92.1316L25.569 92.0326C25.7939 93.0976 26.0175 93.9381 26.2958 94.7639L25.9239 94.8629L23.1888 98.9652L25.4204 102.871L30.2408 102.488L30.603 102.167C31.2048 102.906 31.8179 103.418 32.5163 104.132L32.2487 104.428L31.9373 109.235L35.7466 111.596L39.7555 108.73L40.0251 108.433C40.8576 108.662 41.7153 108.883 42.5876 109.101L42.5607 109.558L44.673 113.945L49.0388 113.908L51.1978 109.51L51.2344 109.275L53.8353 108.583L53.9837 108.768L58.0442 111.512L61.8502 109.375L61.5023 104.518L61.2512 104.135C61.9016 103.512 62.5347 102.893 63.1442 102.281L63.5251 102.405L68.429 102.9L70.5616 98.9578L67.902 94.9412L67.5211 94.8176C67.7738 93.8505 68.0519 93.1016 68.206 92.1608L68.6798 92.2596L73.0522 90.1962L73.0483 85.6979L68.635 83.4977L68.2638 83.5965C68.0943 82.7417 67.8707 81.9012 67.537 80.8652L67.9082 80.7664L70.6444 76.6638L68.4681 72.9687L63.6484 73.3513L63.2306 73.4625C62.6851 72.9327 62.0155 72.211 61.3717 71.7074L61.5848 71.2006L61.8964 66.3934L58.1426 64.2426ZM54.5482 74.6479C61.8009 78.7922 64.3166 88.2464 60.0827 95.4472C55.849 102.648 46.5375 105.126 39.2842 100.982C32.0329 96.8369 29.5172 87.3827 33.7496 80.1823C37.9841 72.9814 47.2957 70.5036 54.5482 74.6479Z" fill="#99BAD2"/>
<path d="M55.6429 72.7819C47.3461 68.0156 36.7035 70.8475 31.873 79.1069C27.0427 87.3663 29.8939 98.0811 38.1902 102.847C46.4865 107.614 57.129 104.782 61.9601 96.5225C66.7906 88.2631 63.9394 77.5483 55.6429 72.7819ZM52.5882 73.8199L49.2126 79.4424C47.0742 78.8866 44.8383 79.0316 42.9535 80.208L38.4636 75.1035C42.5725 72.4354 47.859 71.9288 52.5882 73.8199ZM56.3419 75.9704C60.3589 79.1759 62.4561 84.0172 62.1019 88.8358L55.6089 87.4139C55.5059 85.1916 54.5658 83.1923 53.0223 81.8032L56.3419 75.9704ZM49.0769 83.9779C51.1656 85.2219 51.8923 87.9531 50.6981 90.0707C49.5045 92.188 46.8448 92.8958 44.7567 91.6516C42.6686 90.4075 41.9419 87.6762 43.1355 85.5589C44.385 83.6516 47.0447 82.9439 49.0769 83.9779ZM35.3082 78.1928L39.7422 83.0873C39.6119 83.122 39.5081 83.3745 39.3821 83.408C38.3238 85.2644 38.0328 87.3666 38.3657 89.3027L32.3299 92.0336C31.2215 88.0542 31.6144 83.9002 33.7499 80.1824C34.1873 79.3911 34.7456 78.7925 35.3082 78.1928ZM61.1583 93.1364C60.8489 93.8936 60.52 94.6561 60.083 95.4473C57.9479 99.165 54.4969 101.658 50.6173 102.465L49.8687 95.9156C51.7596 95.4124 53.3961 94.0769 54.4523 92.221C54.5228 91.9773 54.6048 91.9556 54.6655 91.7145L61.1583 93.1364ZM40.133 93.3318C40.7642 94.0637 41.576 94.7474 42.5686 95.3832C43.5591 96.0195 44.5638 96.2022 45.6147 96.3725L46.3729 103.145C43.9265 102.896 41.4902 102.194 39.2845 100.982C37.0788 99.7688 35.2928 97.9943 33.9971 95.8644L40.133 93.3318Z" fill="#99BAD2"/>
</g>
<g clip-path="url(#clip2_179_3275)">
<path d="M23.9091 18.2277L22.3587 21.1242L22.2951 21.3877C21.7267 21.5225 21.1461 21.669 20.5568 21.8237L20.4246 21.5433L17.7469 19.625L15.1682 21.0637L15.3143 24.3758L15.4703 24.6336C14.9257 24.9488 14.4931 25.3604 14.1513 25.8887L13.9016 25.7201L10.6012 25.4094L9.03583 27.914L10.8187 30.6837L11.0919 30.83C10.9089 31.4101 10.7334 31.9831 10.5707 32.5439L10.3042 32.5945L7.33466 33.9989L7.24749 36.9242L10.1298 38.4448L10.4967 38.5018C10.56 39.0506 10.7397 39.6917 10.8521 40.1938L10.64 40.3956L8.71437 43.0401L10.0759 45.6016L13.4089 45.4753L13.5975 45.2959C14.0767 45.855 14.4823 46.2812 14.9155 46.681L14.727 46.8605L14.4353 50.1832L17.0277 51.7767L19.7645 49.9847L19.8751 49.6764C20.4724 49.9201 21.0024 50.0248 21.6488 50.2219L21.586 50.4845L22.9618 53.4387L25.9891 53.6034L27.4379 50.6007L27.5016 50.3369C28.0698 50.2023 28.6509 50.0556 29.2393 49.9017L29.3717 50.1816L32.0496 52.0998L34.6288 50.6606L34.4822 47.3489L34.4278 47.1978L35.7468 45.9427L35.895 46.0046L39.1958 46.3149L40.7608 43.8107L38.9777 41.0412L38.7043 40.8954C38.8881 40.3144 39.0631 39.7418 39.2261 39.1806L39.4924 39.1304L42.5635 37.8321L42.5495 34.8002L39.6671 33.2796L39.401 33.3299C39.237 32.6739 39.1589 32.1392 38.945 31.5307L39.2583 31.4356L41.1835 28.7915L39.7209 26.1229L36.3873 26.2498L36.199 26.4289C35.821 25.9766 35.4154 25.5503 34.881 25.0438L35.0693 24.8646L35.3614 21.5414L32.8702 20.0548L30.1338 21.8464L29.9219 22.0481C29.4262 21.9107 28.7945 21.6998 28.2489 21.6099L28.2109 21.2399L26.8353 18.2856L23.9091 18.2277ZM25.1536 25.5703C30.8036 25.6755 35.3658 30.4701 35.1905 36.1183C35.0153 41.7664 30.2931 46.2598 24.6428 46.1549C18.9936 46.0489 14.4313 41.2544 14.6059 35.6068C14.7815 29.9583 19.5037 25.4649 25.1536 25.5703Z" fill="#2E6EB7"/>
<path d="M25.1977 24.1075C18.7261 23.972 13.3288 29.1077 13.1431 35.5779C12.9575 42.048 18.128 47.4819 24.5994 47.6176C31.0707 47.7533 36.4679 42.6177 36.6539 36.1472C36.8397 29.677 31.6691 24.2431 25.1977 24.1075ZM23.7216 25.7152L23.5434 30.1481C22.0938 30.5124 20.8138 31.3242 20.077 32.6344L15.7551 31.0623C17.3277 28.1449 20.3008 26.128 23.7216 25.7152ZM26.6477 25.773C30.0724 26.3715 32.8887 28.5641 34.2427 31.539L29.9275 32.8029C29.1449 31.5173 27.9379 30.6359 26.5709 30.3125L26.6477 25.773ZM24.9352 32.884C26.5787 32.9443 27.8967 34.3294 27.8753 35.9739C27.8542 37.618 26.5054 38.9015 24.8622 38.841C23.219 38.7804 21.901 37.3953 21.9221 35.7511C22.0445 34.2135 23.3934 32.93 24.9352 32.884ZM14.8852 33.9202L19.1057 35.3858C19.0397 35.4486 19.0601 35.6322 18.9961 35.693C18.9707 37.1384 19.4804 38.4805 20.3065 39.5215L17.6106 43.1018C15.6609 41.0998 14.5457 38.5068 14.6062 35.6069C14.6089 34.9953 14.746 34.4587 14.8852 33.9202ZM35.0788 34.3978C35.141 34.9476 35.1933 35.507 35.1908 36.1184C35.1305 39.018 33.8915 41.618 31.851 43.3567L29.2805 39.7122C30.2394 38.7997 30.7771 37.4758 30.8015 36.0315C30.7643 35.8639 30.8059 35.8244 30.7636 35.6616L35.0788 34.3978ZM22.6634 41.3392C23.2756 41.5687 23.9794 41.7109 24.7749 41.7661C25.5693 41.8222 26.2249 41.6045 26.904 41.3644L29.5524 45.1377C28.0197 45.7841 26.346 46.1588 24.6431 46.155C22.9403 46.1512 21.3042 45.6778 19.8438 44.8342L22.6634 41.3392Z" fill="#2E6EB7"/>
</g>
<defs>
<clipPath id="clip0_179_3275">
<rect width="73" height="73" fill="white" transform="matrix(-1 0 0 1 113.864 0)"/>
</clipPath>
<clipPath id="clip1_179_3275">
<rect width="52.1768" height="52.1768" fill="white" transform="matrix(-0.966373 0.257146 0.257146 0.966373 65.4473 56)"/>
</clipPath>
<clipPath id="clip2_179_3275">
<rect width="35.2974" height="35.2974" fill="white" transform="matrix(-0.724442 0.689336 0.689336 0.724442 25.5684 10.9644)"/>
</clipPath>
</defs>
</svg>
