<?xml version="1.0" encoding="utf-8"?>
<!-- Generator: Adobe Illustrator 13.0.0, SVG Export Plug-In . SVG Version: 6.00 Build 14948)  -->
<!DOCTYPE svg PUBLIC "-//W3C//DTD SVG 1.1//EN" "http://www.w3.org/Graphics/SVG/1.1/DTD/svg11.dtd">
<svg version="1.1" id="Ebene_1" xmlns="http://www.w3.org/2000/svg" xmlns:xlink="http://www.w3.org/1999/xlink" x="0px" y="0px"
	 width="249.091px" height="303.468px" viewBox="0 0 249.091 303.468" enable-background="new 0 0 249.091 303.468"
	 xml:space="preserve">
<metadata><?xpacket begin="﻿" id="W5M0MpCehiHzreSzNTczkc9d"?>
<x:xmpmeta xmlns:x="adobe:ns:meta/" x:xmptk="Adobe XMP Core 4.1-c036 46.277092, Fri Feb 23 2007 14:17:08        ">
   <rdf:RDF xmlns:rdf="http://www.w3.org/1999/02/22-rdf-syntax-ns#">
      <rdf:Description rdf:about=""
            xmlns:dc="http://purl.org/dc/elements/1.1/">
         <dc:format>image/svg+xml</dc:format>
         <dc:title>
            <rdf:Alt>
               <rdf:li xml:lang="x-default">Höhbauer_Logo</rdf:li>
            </rdf:Alt>
         </dc:title>
      </rdf:Description>
      <rdf:Description rdf:about=""
            xmlns:xap="http://ns.adobe.com/xap/1.0/"
            xmlns:xapGImg="http://ns.adobe.com/xap/1.0/g/img/">
         <xap:CreatorTool>Adobe Illustrator CS3</xap:CreatorTool>
         <xap:CreateDate>2015-06-09T15:29:37+02:00</xap:CreateDate>
         <xap:ModifyDate>2015-06-09T15:29:37+02:00</xap:ModifyDate>
         <xap:MetadataDate>2015-06-09T15:29:37+02:00</xap:MetadataDate>
         <xap:Thumbnails>
            <rdf:Alt>
               <rdf:li rdf:parseType="Resource">
                  <xapGImg:width>212</xapGImg:width>
                  <xapGImg:height>256</xapGImg:height>
                  <xapGImg:format>JPEG</xapGImg:format>
                  <xapGImg:image>/9j/4AAQSkZJRgABAgEASABIAAD/7QAsUGhvdG9zaG9wIDMuMAA4QklNA+0AAAAAABAASAAAAAEA&#xA;AQBIAAAAAQAB/+4ADkFkb2JlAGTAAAAAAf/bAIQABgQEBAUEBgUFBgkGBQYJCwgGBggLDAoKCwoK&#xA;DBAMDAwMDAwQDA4PEA8ODBMTFBQTExwbGxscHx8fHx8fHx8fHwEHBwcNDA0YEBAYGhURFRofHx8f&#xA;Hx8fHx8fHx8fHx8fHx8fHx8fHx8fHx8fHx8fHx8fHx8fHx8fHx8fHx8fHx8f/8AAEQgBAADUAwER&#xA;AAIRAQMRAf/EAaIAAAAHAQEBAQEAAAAAAAAAAAQFAwIGAQAHCAkKCwEAAgIDAQEBAQEAAAAAAAAA&#xA;AQACAwQFBgcICQoLEAACAQMDAgQCBgcDBAIGAnMBAgMRBAAFIRIxQVEGE2EicYEUMpGhBxWxQiPB&#xA;UtHhMxZi8CRygvElQzRTkqKyY3PCNUQnk6OzNhdUZHTD0uIIJoMJChgZhJRFRqS0VtNVKBry4/PE&#xA;1OT0ZXWFlaW1xdXl9WZ2hpamtsbW5vY3R1dnd4eXp7fH1+f3OEhYaHiImKi4yNjo+Ck5SVlpeYmZ&#xA;qbnJ2en5KjpKWmp6ipqqusra6voRAAICAQIDBQUEBQYECAMDbQEAAhEDBCESMUEFURNhIgZxgZEy&#xA;obHwFMHR4SNCFVJicvEzJDRDghaSUyWiY7LCB3PSNeJEgxdUkwgJChgZJjZFGidkdFU38qOzwygp&#xA;0+PzhJSktMTU5PRldYWVpbXF1eX1RlZmdoaWprbG1ub2R1dnd4eXp7fH1+f3OEhYaHiImKi4yNjo&#xA;+DlJWWl5iZmpucnZ6fkqOkpaanqKmqq6ytrq+v/aAAwDAQACEQMRAD8A9U4q7FXYq7FXYq7FXYq7&#xA;FXYq7FXYq7FXYq7FXYq7FXYq7FXYq7FXYq7FXYq7FXYq7FXYq7FXYq7FXYq7FXYq7FXYq7FXYq7F&#xA;XYq7FXYq7FXYq7FXYq7FXYq7FXYq7FXYq7FXYq7FXYq7FXYq7FXYq7FXYq7FXYq7FXYq7FXYq7FX&#xA;Yq7FXYq7FXYq7FXYq7FXYq7FXYq7FXYq7FXYq7FXYq7FXYq7FXYq7FXYq7FXYq7FXYq7FXYq7FXY&#xA;q7FXYq7FXYq7FXYq7FXYq7FXYq7FXYq7FXYq7FXYq7FXYq7FXYq7FXYq7FXYq7FXYq7FXYq7FXYq&#xA;7FXYq7FXYq7FXYq7FXYq7FXYq7FXYq7FXYq7FXYq7FXYq7FXYq7FXYq7FXYq7FXYq7FXYq7FXYq7&#xA;FXYq7FXYq7FXYq7FXYq7FXYq7FXYq7FXYq7FXYq7FXYq7FXYq7FXYq7FXYq7FXYq7FXYq7FXYq7F&#xA;XYq7FXYq7FXYq7FXYq7FXYq7FXYq7FXYq7FXYq7FXYq7FXYq7FXYq7FXYq7FXYq7FXYq7FXYq7FX&#xA;Yq7FXYq7FXYq7FXYq7FXYq7FXYq7FXYq7FXYq7FXYq7FXYq7FXYq7FXYq7FXYq7FXYq7FXYq7FXY&#xA;q7FXYq7FXYq7FXYq7FXYq7FXYq7FXYq7FXYq7FXYq7FXYqt9WPhz5jh/NUU6065DxI1dik8Jul2T&#xA;Q7FXYq7FXYq7FXYq7FXYq7FXYq7FXYq7FXYq7FXYq7FXYq7FXYq7FXYq7FXYqxbzL5l487Kyf4vs&#xA;zTL28VU/rOcL7R+0fDeDAd/4pd3kPPvPT38tzodDfrn8Aiv+mN/6N/45n/8AOm/5JNP/ACL/AM5P&#xA;86t1jsVdirsVdirsVdirsVdirsVdirsVdirsVdirsVdirsVdirsVdirsVdirsVYt5l8y8edlZP8A&#xA;F9maZe3iqn9ZzhfaP2j4bwYDv/FLu8h5956e/ludDob9c/gGJ5587pm3/TG/9G/8c9Q/503/ACSe&#xA;f/5F/wCcn+dW6x2KuxV2KuxV2KuxV2KuxV2KuxV2KuxV2KuxV2KuxV2KuxV2KuxV2KuxVi3mXzLx&#xA;52Vk/wAX2Zpl7eKqf1nOF9o/aPhvBgO/8Uu7yHn3np7+W50Ohv1z+AYnnnzunYqzb/pjf+jf+Oeo&#xA;f86b/kk8/wD8i/8AOT/OrdY7FXYq7FXYq7FXYq7FXYq7FXYq7FXYq7FXYq7FXYq7FXYq7FXYq7FW&#xA;LeZfMvHnZWT/ABfZmmXt4qp/Wc4X2j9o+G8GA7/xS7vIefeenv5bnQ6G/XP4BieefO6dirccbyOq&#xA;IpZ2NFUbkk5PHjlOQjEXI8ggkAWWe/UZ/wDDP1P4fX9HhTkKcvCvT2z1j8lP+TPB24/Drntfdf2P&#xA;N+MPzHH0tN86BwXYq7FXYq7FXYq7FXYq7FXYq7FXYq7FXYq7FXYq7FXYq7FXYq7FWLeZfMvHnZWT&#xA;/F9maZe3iqn9ZzhfaP2j4bwYDv8AxS7vIefeenv5bnQ6G/XP4BieefO6dirccbyOqIpZ2NFUbkk5&#xA;PHjlOQjEXI8ggkAWUzd00tGhhYNqLCk0w3EQPVEP838zdugzd5MkdBEwgb1B+qX8z+jH+l/Ol05B&#xA;xADmNn6Og7/M+XcGRf8ATG/9G/8AHOy/503/ACSdX/yL/wA5P86t1jsVdirsVdirsVdirsVdirsV&#xA;dirsVdirsVdirsVdirsVdirsVYt5l8y8edlZP8X2Zpl7eKqf1nOF9o/aPhvBgO/8Uu7yHn3np7+W&#xA;50Ohv1z+AYnnnzunYq3HG8jqiKWdjRVG5JOTx45TkIxFyPIIJAFlM3dNLRoYWDaiwpNMNxED1RD/&#xA;ADfzN26DN3kyR0ETCBvUH6pfzP6Mf6X86XTkHEAOY2fo6Dv8z5dwSvNC5jNv+mN/6N/456h/zpv+&#xA;STz/APyL/wA5P86t1jsVdirsVdirsVdirsVdirsVdirsVdirsVdirsVdirsVdirFvMvmXjzsrJ/i&#xA;+zNMvbxVT+s5wvtH7R8N4MB3/il3eQ8+89Pfy3Oh0N+ufwDE88+d07FW443kdURSzsaKo3JJyePH&#xA;KchGIuR5BBIAspm7ppaNDCwbUWFJphuIgeqIf5v5m7dBm7yZI6CJhA3qD9Uv5n9GP9L+dLpyDiAH&#xA;MbP0dB3+Z8u4JXmhcx2Ks2/6Y3/o3/jnqH/Om/5JPP8A/Iv/ADk/zq3WOxV2KuxV2KuxV2KuxV2K&#xA;uxV2KuxV2KuxV2KuxV2KuxVi3mXzLx52Vk/xfZmmXt4qp/Wc4X2j9o+G8GA7/wAUu7yHn3np7+W5&#xA;0Ohv1z+AYnnnzunYq3HG8jqiKWdjRVG5JOTx45TkIxFyPIIJAFlM3dNLRoYWDaiwpNMNxED1RD/N&#xA;/M3boM3eTJHQRMIG9Qfql/M/ox/pfzpdOQcQA5jZ+joO/wAz5dwSvNC5jsVXwwyzyrFEpeRzRVHU&#xA;nLcOGeWYhAXI8gxlIRFnkzz6i/8Ahv6l6iep6PDnX4OXhX57Z6x+Rl/JvgXHi4OG72v3+/Z5vxh+&#xA;Y46NWm2b5wnYq7FXYq7FXYq7FXYq7FXYq7FXYq7FXYq7FXYq7FWLeZfMvHnZWT/F9maZe3iqn9Zz&#xA;hfaP2j4bwYDv/FLu8h5956e/ludDob9c/gGJ5587p2KtxxvI6oilnY0VRuSTk8eOU5CMRcjyCCQB&#xA;ZTN3TS0aGFg2osKTTDcRA9UQ/wA38zdugzd5MkdBEwgb1B+qX8z+jH+l/Ol05BxADmNn6Og7/M+X&#xA;cErzQuY7FV8MMs8qxRKXkc0VR1Jy3DhnlmIQFyPIMZSERZ5JlNNFpcTWtqwe9ccbm5Xog7xxn9Zz&#xA;eZs0NDA4sRvOdpzH8P8AQh+k/gYkYnMeKX0dB+ksh/6Y3/o3/jnX/wDOm/5JOs/5F/5yf51brHYq&#xA;7FXYq7FXYq7FXYq7FXYq7FXYq7FXYq7FXYqxbzL5l487Kyf4vszTL28VU/rOcL7R+0fDeDAd/wCK&#xA;Xd5Dz7z09/Lc6HQ365/AMTzz53TsVbjjeR1RFLOxoqjcknJ48cpyEYi5HkEEgCymbumlo0MLBtRY&#xA;UmmG4iB6oh/m/mbt0GbvJkjoImEDeoP1S/mf0Y/0v50unIOIAcxs/R0Hf5ny7gleaFzHYqvhhlnl&#xA;WKJS8jmiqOpOW4cM8sxCAuR5BjKQiLPJMppotLia1tWD3rjjc3K9EHeOM/rObzNmhoYHFiN5ztOY&#xA;/h/oQ/SfwMSMTmPFL6Og/SUqznnNZt/0xv8A0b/xz1D/AJ03/JJ5/wD5F/5yf51brHYq7FXYq7FX&#xA;Yq7FXYq7FXYq7FXYq7FXYq7FUDrUN/Np8sdk/CYj6SvdQexOaztjDnyaeUcB4Z/eOoB6Hz+7m5Gl&#xA;lCMwZjZ5y6MjFHBVlNGU7EEdjnjM4GJIIoh6oEEWGsiluON5HVEUs7GiqNyScnjxynIRiLkeQQSA&#xA;LKe2dvbW3qWcU4XWJFosu3BCesSt2cjbl9GdXo9PiwcWCMwNZIfV/DE/zBLpI8uL4B12Wcp1Mj90&#xA;OnU+fu8kjlikikaOVSkiGjKeoOcrlxSxyMZipDmHYRkCLHJblbJfDDLPKsUSl5HNFUdSctw4Z5Zi&#xA;EBcjyDGUhEWeSeQQQW0U1jZTA6uwo8n7JH7UMTdm9++dXgwQwwngwTH5sjc9PPHCXSXn15e7XTmZ&#xA;ETmP3X43KQMrKxVgQwNCDsQRnISiYmjsQ7IG3YEs2/6Y3/o3/jnqH/Om/wCSTz//ACL/AM5P86t1&#xA;jsVdirsVdirsVdirsVdirsVdirsVdirsVdirsVSLzF5dW+U3NsAt4o3HQSAdj7+BzlvaD2fGqHiY&#xA;9sw/2X7e4/A+Wx0WtOM8Mvp+5hQhmM3ohG9Xlx9Oh5cq0pTPMhhmZ8FHjuq633PQcQq72TF3TS0a&#xA;GFg2osKTTDcRA9UQ/wA38zdugzc5MkdBEwgb1B+qX8z+jH+l/Ol05BxQDmNn6Og7/M+XcErzQuYm&#xA;0UserRrb3DBNRQcbe4bYSgdI5D/N4HOhxZY9oRGPIa1A2hM/x/0Zef8ANl8D54UonCeKP0dR3eY/&#xA;SEuFpcm5+qiNvrHLh6VN65phpMpy+FwnxLqutuV4keHiv0phNNFpcTWtqwe9ccbm5Xog7xxn9Zzc&#xA;5s0NDA4sRvOdpzH8P9CH6T+Bixicx4pfR0H6SlQJBBBoRuCM58Eg2HMTQFNWShouqKNj0E4HY/5f&#xA;683wMe0I0dtUPlkH/F/7pxN8J/2v/c/s+5K2VlYqwIYGhB2IIzQyiYmjsQ5YNs2/6Y3/AKN/456f&#xA;/wA6b/kk6D/kX/nJ/nVusdirsVdirsVdirsVdirsVdirsVdirsVdirsVdirsVSrV9KaSOa6sFVNQ&#xA;ZePqftFe4U9AxG3LNF2t2YZxll04EdQRXF1rrXdI8uL4eYzdNqACIz+j8fZ5MAdXRyrgq6mjKdiC&#xA;PHPI5xMSRIUQ9KCCLDWRS7FU+sNTe8ge2LLFqboI4bw/adR/ust2Y9A2dboO05aiBxEiGpMeGOTr&#xA;IfzCehPIS6+91ubAIES54+Zj3ef7EjlikikaORSkiGjKdiCM5bLiljkYyFSHMOwjIEWOS3K2TgSC&#xA;CDQjcEYQSDYQmgKaslDRdUUbHoJwOx/y/wBeb4GPaEaO2qHyyD/i/wDdOJvhP+1/7n9n3Mk9N/8A&#xA;CHp8T6noceFN61pSmdp4cv5I4aPF4dV1vudVY/NX04k9zqHWuxV2KuxV2KuxV2KuxV2KuxV2KuxV&#xA;2KuxV2KuxV2KuxVIvMXl1b5Tc2wC3ijcdBIB2Pv4HOW9oPZ8aoeJj2zD/Zft7j8D5bHRa04zwy+n&#xA;7mEOjIxRwVZTRlOxBHY55fOBiSCKIehBBFhrIpdiqbRSx6tGtvcME1FBxt7hthKB0jkP83gc6HFl&#xA;j2hEY8hrUDaEz/H/AEZef82XwPnhSicJ4o/R1Hd5j9ISuWKSKRo5FKSIaMp2IIzRZcUscjGQqQ5h&#xA;y4yBFjktytk4Eggg0I3BGEEg2EM8+uXP+FvrXqH6x6FfU716V+eesfnMv8l+Lf7zw7vzec8KP5nh&#xA;r08Sc50TgOxV2KuxV2KuxV2KuxV2KuxV2KuxV2KuxV2KuxV2KuxV2KpF5i8urfKbm2AW8UbjoJAO&#xA;x9/A5y3tB7PjVDxMe2Yf7L9vcfgfLY6LWnGeGX0/cwh0ZGKOCrKaMp2II7HPL5wMSQRRD0IIIsNZ&#xA;FLsVTaKWPVo1t7hgmooONvcNsJQOkch/m8DnQ4sse0IjHkNagbQmf4/6MvP+bL4HzwpROE8Ufo6j&#xA;u8x+kJXLFJFI0cilJENGU7EEZosuKWORjIVIcw5cZAixyW5WyZt/0xv/AEb/AMc9Q/503/JJ5/8A&#xA;5F/5yf51brHYq7FXYq7FXYq7FXYq7FXYq7FXYq7FXYq7FXYq7FXYq7FXYqkXmLy6t8pubYBbxRuO&#xA;gkA7H38DnLe0Hs+NUPEx7Zh/sv29x+B8tjotacZ4ZfT9zCHRkYo4KspoynYgjsc8vnAxJBFEPQgg&#xA;iw1kUuxVNopY9WjW3uGCaig429w2wlA6RyH+bwOdDiyx7QiMeQ1qBtCZ/j/oy8/5svgfPClE4TxR&#xA;+jqO7zH6QlcsUkUjRyKUkQ0ZTsQRmiy4pY5GMhUhzDlxkCLHJmn/AExv/Rv/ABz0z/nTf8knQ/8A&#xA;Iv8Azk/zq3WOxV2KuxV2KuxV2KuxV2KuxV2KuxV2KuxV2KuxV2KuxV2KuxV2KpF5i8urfKbm2AW8&#xA;UbjoJAOx9/A5y3tB7PjVDxMe2Yf7L9vcfgfLY6LWnGeGX0/cwh0ZGKOCrKaMp2II7HPL5wMSQRRD&#xA;0IIIsNZFLsVTaKWPVo1t7hgmooONvcNsJQOkch/m8DnQ4sse0IjHkNagbQmf4/6MvP8Amy+B88KU&#xA;ThPFH6Oo7vMfpDJfq1x/hX6t6bev6PD06fFyr0pnbflsn8leFwnxPDqutup8SP5niva06zpHXuxV&#xA;2KuxV2KuxV2KuxV2KuxV2KuxV2KuxV2KuxV2KuxV2KuxV2KuxVIvMXl1b5Tc2wC3ijcdBIB2Pv4H&#xA;OW9oPZ8aoeJj2zD/AGX7e4/A+Wx0WtOM8Mvp+5hDoyMUcFWU0ZTsQR2OeXzgYkgiiHoQQRYayKXY&#xA;qzr6zcf4T9f1G9b0P7yvxV6Vrnq35jJ/JPicR4/C59XnPDj+ZqtuJO86V17sVdirsVdirsVdirsV&#xA;dirsVdirsVdirsVdirsVdirsVdirsVdirsVdiqQ+ZPLy3qG6tlAu1HxL09QDt/reGcp7Rez41MfF&#xA;xD98P9kP19x+Hu2Wh1vhnhl9P3MIZWVirAhgaEHYgjPMJRMTR2IegBt2BLNv+mN/6N/456h/zpv+&#xA;STz/APyL/wA5P86t1jsVdirsVdirsVdirsVdirsVdirsVdirsVdirsVdirsVdirsVdirsVdirsVS&#xA;DzH5cW8Vrq1UC7A+NOgkA/42zk/aH2eGpBy4hWUcx/O/b/YXZ6HXcHpl9P3MJZWVirAhgaEHYgjP&#xA;MZRMTR2Id+DbNv8Apjf+jf8Ajnp//Om/5JOg/wCRf+cn+dW6x2KuxV2KuxV2KuxV2KuxV2KuxV2K&#xA;uxV2KuxV2KuxV2KuxV2KuxV2KuxV2KuxVIPMflxbxWurVQLsD406CQD/AI2zk/aH2eGpBy4hWUcx&#xA;/O/b/YXZ6HXcHpl9P3LvTf8Awh6fE+p6HHhTetaUplnhy/kjho8Xh1XW+5Fj81fTiT3Ooda7FXYq&#xA;7FXYq7FXYq7FXYq7FXYq7FXYq7FXYq7FXYq7FXYq7FXYq7FXYq7FXYq7FXYq/wD/2Q==</xapGImg:image>
               </rdf:li>
            </rdf:Alt>
         </xap:Thumbnails>
      </rdf:Description>
      <rdf:Description rdf:about=""
            xmlns:xapMM="http://ns.adobe.com/xap/1.0/mm/"
            xmlns:stRef="http://ns.adobe.com/xap/1.0/sType/ResourceRef#">
         <xapMM:DocumentID>uuid:6D5278E9A60EE511B0A2E5E951BA55A1</xapMM:DocumentID>
         <xapMM:InstanceID>uuid:1F445993AB0EE511B0A2E5E951BA55A1</xapMM:InstanceID>
         <xapMM:DerivedFrom rdf:parseType="Resource">
            <stRef:instanceID>uuid:6C5278E9A60EE511B0A2E5E951BA55A1</stRef:instanceID>
            <stRef:documentID>uuid:6B5278E9A60EE511B0A2E5E951BA55A1</stRef:documentID>
         </xapMM:DerivedFrom>
      </rdf:Description>
      <rdf:Description rdf:about=""
            xmlns:xapTPg="http://ns.adobe.com/xap/1.0/t/pg/"
            xmlns:stDim="http://ns.adobe.com/xap/1.0/sType/Dimensions#"
            xmlns:xapG="http://ns.adobe.com/xap/1.0/g/">
         <xapTPg:MaxPageSize rdf:parseType="Resource">
            <stDim:w>88.000001</stDim:w>
            <stDim:h>108.000008</stDim:h>
            <stDim:unit>Millimeters</stDim:unit>
         </xapTPg:MaxPageSize>
         <xapTPg:NPages>1</xapTPg:NPages>
         <xapTPg:HasVisibleTransparency>False</xapTPg:HasVisibleTransparency>
         <xapTPg:HasVisibleOverprint>False</xapTPg:HasVisibleOverprint>
         <xapTPg:PlateNames>
            <rdf:Seq>
               <rdf:li>Magenta</rdf:li>
               <rdf:li>Yellow</rdf:li>
            </rdf:Seq>
         </xapTPg:PlateNames>
         <xapTPg:SwatchGroups>
            <rdf:Seq>
               <rdf:li rdf:parseType="Resource">
                  <xapG:groupName>Standard-Farbfeldgruppe</xapG:groupName>
                  <xapG:groupType>0</xapG:groupType>
               </rdf:li>
            </rdf:Seq>
         </xapTPg:SwatchGroups>
      </rdf:Description>
   </rdf:RDF>
</x:xmpmeta>
                                                                                                    
                                                                                                    
                                                                                                    
                                                                                                    
                                                                                                    
                                                                                                    
                                                                                                    
                                                                                                    
                                                                                                    
                                                                                                    
                                                                                                    
                                                                                                    
                                                                                                    
                                                                                                    
                                                                                                    
                                                                                                    
                                                                                                    
                                                                                                    
                                                                                                    
                                                                                                    
                           
<?xpacket end="w"?>
	</metadata>
<g>
	<path fill-rule="evenodd" clip-rule="evenodd" fill="#123D71" d="M107.502,192.7l-4.65-4.655l4.985-4.986
		c2.262-2.263,3.183-4.947,0.997-7.134c-2.262-2.263-4.563-1.342-7.171,1.267l-6.584,6.596l18.012,18.027l7.056-7.058
		c2.8-2.8,3.183-5.638,0.384-8.438c-2.416-2.416-5.408-1.266-7.478,0.805L107.502,192.7z M112.324,212.094l-27.535-27.539
		l13.384-13.386c6.75-6.75,12.693-4.257,15.531-1.419c3.951,3.949,2.839,7.287,2.263,9.013c4.641-2.108,8.207-0.308,10.93,2.417
		c2.187,2.186,3.337,5.178,3.298,8.054c-0.037,3.107-0.574,5.563-6.212,11.2L112.324,212.094z"/>
	<polygon fill="#123D71" points="31.676,268.052 44.025,280.402 49.778,274.649 22.242,247.11 16.49,252.863 26.921,263.296 
		16.183,274.035 5.752,263.604 0,269.356 27.534,296.896 33.287,291.142 20.938,278.792 	"/>
	<path fill-rule="evenodd" clip-rule="evenodd" fill="#123D71" d="M40.221,256.667c12.924,12.926,24.084,4.909,27.728,1.266
		c3.643-3.644,11.658-14.805-1.267-27.73c-12.923-12.926-24.083-4.909-27.726-1.266S27.298,243.741,40.221,256.667 M45.974,250.913
		c-7.709-7.708-5.254-13.999-2.148-17.105c3.107-3.106,9.396-5.562,17.104,2.147c7.709,7.71,5.254,14,2.148,17.107
		C59.971,256.169,53.682,258.623,45.974,250.913 M30.826,223.413l-4.832,4.833l4.41,4.411l4.832-4.833L30.826,223.413z
		 M38.304,215.934l-4.832,4.833l4.41,4.411l4.832-4.833L38.304,215.934z"/>
	<polygon fill="#123D71" points="88.784,210.937 101.133,223.286 106.885,217.533 79.35,189.994 73.598,195.749 84.029,206.181 
		73.291,216.92 62.86,206.487 57.108,212.24 84.642,239.779 90.395,234.026 78.046,221.676 	"/>
	<path fill-rule="evenodd" clip-rule="evenodd" fill="#123D71" d="M139.968,173.093l10.163-10.164l7.438,3.912l6.252-6.251
		l-37.237-17.836l-6.635,6.636l17.718,37.357l6.059-6.06L139.968,173.093z M129.383,152.382l0.077-0.077l14.304,7.479l-7.019,7.02
		L129.383,152.382z"/>
	<path fill="#123D71" d="M161.821,107.512l-5.868,5.869l18.141,18.141c3.336,3.338,3.643,6.866-0.308,10.817
		c-2.684,2.684-6.596,3.221-10.431-0.614l-17.871-17.873l-5.868,5.868l18.255,18.257c2.838,2.685,5.637,4.334,8.821,4.526
		c5.177,0.268,9.548-2.877,12.08-5.408c6.94-6.943,8.206-14.422,0.959-21.671L161.821,107.512z"/>
	<polygon fill="#123D71" points="187.509,81.821 167.259,102.072 194.796,129.611 215.696,108.707 210.826,103.837 195.562,119.102 
		188.429,111.968 201.852,98.544 196.981,93.672 183.558,107.096 177.767,101.305 192.378,86.692 	"/>
	<path fill="#123D71" d="M220.188,104.215l-27.535-27.539l13.921-13.923c7.324-7.326,14.074-3.26,16.451-0.882
		c3.03,3.03,4.104,7.173,2.303,10.816c3.258-1.265,5.33-1.649,10.469,3.49c4.026,4.028,5.023,5.025,6.711,4.258l0.729,0.729
		l-6.366,6.366c-1.687-0.92-3.335-2.109-6.175-4.947c-3.757-3.759-5.445-4.987-9.701-0.729l-4.199,4.199l-4.64-4.641l5.003-5.004
		c2.991-2.992,3.413-5.485,0.691-8.208c-1.458-1.458-4.258-2.953-7.633,0.422l-7.172,7.172l22.781,22.782L220.188,104.215z"/>
	<polygon fill="#123D71" points="72.676,300.382 248.091,300.382 248.091,302.468 70.59,302.468 70.59,266.09 72.676,264.004 	"/>
	<polygon fill="none" stroke="#123D71" stroke-width="2" points="72.676,300.382 248.091,300.382 248.091,302.468 70.59,302.468 
		70.59,266.09 72.676,264.004 	"/>
	<path fill="#FDC300" d="M222.314,195.316l25.777,25.783v33.993l-42.771-42.779L222.314,195.316z M248.091,169.532v48.425
		l-24.207-24.213L248.091,169.532z M248.091,132.102v34.29l-44.343,44.35l-17.142-17.145L248.091,132.102z M165.718,211.347
		l-17.641-17.645L248.091,93.671v35.288L165.718,211.347z M248.091,293.734l-80.802-80.817l17.745-17.749l63.057,63.067V293.734z"/>
	<polygon fill="#123D71" points="70.59,188.741 70.59,1.008 248.091,1 248.091,76.308 246.006,78.394 246.006,3.086 72.676,3.086 
		72.676,186.654 	"/>
	<polygon fill="none" stroke="#123D71" stroke-width="2" points="70.59,188.741 70.59,1.008 248.091,1 248.091,76.308 
		246.006,78.394 246.006,3.086 72.676,3.086 72.676,186.654 	"/>
</g>
</svg>
