<?xml version="1.0" encoding="UTF-8" standalone="no"?>
<svg version="1.1" id="Ebene_1" xmlns="http://www.w3.org/2000/svg" xmlns:xlink="http://www.w3.org/1999/xlink" width="406.881px" height="207.561px" viewBox="0 0 406.881 207.561" xml:space="preserve">
     <g
     id="g3084"><path
       style="fill:#b0a79d"
       id="path3131"
       d="m 11.07827,174.268 c -1.024,0.561 -1.979,0.781 -3.393,0.781 -2.562,0 -4.221,-0.708 -5.514,-2.393 -1.293,-1.657 -1.953,-3.806 -1.953,-6.295 0,-3.66 1.393,-6.588 3.832,-7.93 1,-0.537 2.244,-0.83 3.512,-0.83 4.516,0 7.297,3.294 7.297,8.613 10e-4,3.833 -1.316,6.712 -3.781,8.054 z m -0.586,-11.882 c -0.27,-0.854 -1.17,-2.147 -2.977,-2.147 -1.146,0 -2.146,0.585 -2.635,1.488 -0.586,1.098 -0.854,2.586 -0.854,4.636 0,2.93 0.486,4.758 1.512,5.49 0.537,0.39 1.222,0.585 2.025,0.585 2.367,0 3.367,-1.806 3.367,-6.124 0.002,-1.732 -0.145,-2.976 -0.438,-3.928 z" /><path
       style="fill:#b0a79d"
       id="path3133"
       d="m 21.37527,175.171 c -1.536,0 -3.221,-0.488 -5.051,-1.439 l 1.17,-2.391 c 1,0.608 2.732,1.416 4.146,1.416 0.928,0 1.66,-0.61 1.66,-1.416 0,-0.854 -0.611,-1.293 -1.928,-1.537 l -1.465,-0.27 c -0.83,-0.146 -1.854,-0.73 -2.293,-1.269 -0.438,-0.538 -0.707,-1.439 -0.707,-2.245 0,-2.438 1.928,-4.075 4.83,-4.075 2.002,0 3.317,0.61 4.465,1.171 l -1.072,2.196 c -1.244,-0.634 -2.146,-0.902 -3.074,-0.902 -0.953,0 -1.586,0.487 -1.586,1.221 0,0.634 0.414,0.976 1.562,1.269 l 1.513,0.393 c 1.536,0.39 2.049,0.854 2.489,1.415 0.463,0.585 0.683,1.293 0.683,2.122 0.003,2.583 -2.144,4.341 -5.342,4.341 l 0,0 z" /><path
       style="fill:#b0a79d"
       id="path3135"
       d="m 32.98727,175.072 c -1.658,0 -2.977,-0.73 -3.367,-1.83 -0.194,-0.535 -0.221,-0.779 -0.221,-1.928 v -6.783 h -1.244 v -2.244 h 1.244 c 0,-1.221 0,-2.024 0.123,-2.951 l 3.318,-0.83 c -0.123,1.146 -0.195,2.513 -0.195,3.781 h 2.928 l -0.83,2.244 h -2.098 v 6.271 c 0,1.586 0.291,2.001 1.414,2.001 0.293,0 0.586,-0.073 1.172,-0.244 l 0.414,1.952 c -0.949,0.391 -1.804,0.561 -2.658,0.561 l 0,0 z" /><path
       style="fill:#b0a79d"
       id="path3137"
       d="m 46.30727,174.049 c -0.854,0.683 -1.707,0.976 -2.732,0.976 -1.221,0 -2.074,-0.366 -2.781,-1.146 -0.098,0.438 -0.12,0.561 -0.342,0.901 h -2.928 c 0.244,-0.561 0.316,-0.927 0.316,-2.659 v -11.564 c 0,-1.537 -0.049,-2.367 -0.221,-3.074 l 3.344,-0.781 c 0.098,0.854 0.121,1.366 0.121,2.222 v 2.953 c 0,0.364 -0.023,0.9 -0.072,1.098 0.635,-0.683 1.514,-1 2.66,-1 3.049,0 4.951,2.439 4.951,6.344 0.002,2.533 -0.776,4.51 -2.316,5.73 l 0,0 z m -1.537,-7.784 c -0.242,-1.074 -0.926,-1.586 -1.779,-1.586 -0.854,0 -1.438,0.537 -1.854,1 v 5.758 c 0.438,0.391 0.951,0.805 1.83,0.805 0.805,0 1.317,-0.315 1.586,-0.976 0.293,-0.685 0.366,-1.342 0.366,-2.879 -10e-4,-1.121 -0.026,-1.585 -0.149,-2.122 l 0,0 z" /><path
       style="fill:#b0a79d"
       id="path3139"
       d="m 60.01627,175.414 c -0.756,-0.316 -1.438,-0.879 -1.756,-1.514 -0.244,0.244 -0.514,0.488 -0.756,0.659 -0.611,0.438 -1.488,0.683 -2.514,0.683 -2.781,0 -4.295,-1.415 -4.295,-3.902 0,-2.93 2.024,-4.294 6.002,-4.294 0.244,0 0.465,0 0.731,0.022 v -0.512 c 0,-1.391 -0.269,-1.854 -1.463,-1.854 -1.05,0 -2.271,0.514 -3.611,1.415 l -1.391,-2.342 c 0.657,-0.415 1.146,-0.659 2.024,-1.023 1.219,-0.514 2.269,-0.732 3.416,-0.732 2.098,0 3.537,0.781 4.023,2.172 0.172,0.513 0.244,0.902 0.221,2.245 l -0.072,4.196 c -0.024,1.367 0.072,1.952 1.17,2.782 l -1.729,1.999 z m -2.779,-6.099 c -2.271,0 -3.051,0.415 -3.051,1.903 0,0.976 0.609,1.634 1.439,1.634 0.609,0 1.221,-0.317 1.707,-0.854 l 0.051,-2.685 -0.146,0.002 0,0 0,0 z" /><path
       style="fill:#b0a79d"
       id="path3141"
       d="m 70.28527,174.976 c -0.854,2.416 -1.487,3.464 -2.391,4.123 -0.83,0.61 -1.902,1 -3.025,1.146 l -1.121,-2.146 c 0.707,-0.195 1.537,-0.488 2.023,-0.83 0.367,-0.269 0.66,-0.61 0.928,-1.025 0.316,-0.512 0.416,-0.73 0.709,-1.464 h -0.83 c -0.393,-1.171 -1.049,-3.123 -1.172,-3.513 l -2.951,-8.784 3.343,-0.391 2.172,7.295 c 0.194,0.73 0.608,2.416 0.657,2.586 0,-0.073 0.244,-1.391 0.392,-2.001 0.099,-0.415 0.293,-1.146 0.488,-1.732 l 1.879,-5.953 h 3.44 l -4.541,12.689 z" /><path
       style="fill:#b0a79d"
       id="path3143"
       d="m 79.45727,169.559 v 0.098 c 0,1.929 0.953,3.025 2.636,3.025 1.123,0 2.172,-0.415 3.172,-1.245 l 1.271,1.952 c -1.439,1.171 -2.953,1.73 -4.709,1.73 -3.586,0 -5.904,-2.536 -5.904,-6.466 0,-2.245 0.463,-3.731 1.562,-4.953 1.023,-1.146 2.271,-1.684 3.929,-1.684 1.438,0 2.807,0.488 3.61,1.318 1.146,1.171 1.658,2.854 1.658,5.465 v 0.756 h -7.224 v 0.004 l -0.001,0 z m 3.83,-2.537 c 0,-0.927 -0.098,-1.415 -0.391,-1.879 -0.316,-0.488 -0.779,-0.732 -1.438,-0.732 -1.245,0 -1.952,0.978 -1.952,2.708 v 0.051 h 3.782 l -10e-4,-0.148 0,0 0,0 z" /><path
       style="fill:#b0a79d"
       id="path3145"
       d="m 95.58727,165.143 c -0.318,-0.17 -0.586,-0.244 -0.953,-0.244 -0.732,0 -1.392,0.341 -2,1.049 v 8.833 h -3.271 v -8.344 c 0,-1.684 -0.195,-2.953 -0.464,-3.66 l 2.93,-0.78 c 0.291,0.514 0.463,1.073 0.512,1.78 0.707,-0.952 1.707,-1.78 2.928,-1.78 0.488,0 0.707,0.05 1.219,0.27 l -0.901,2.876 0,0 z" /><path
       style="fill:#b0a79d"
       id="path3147"
       d="m 99.83127,160.872 c -1.101,0 -2,-0.902 -2,-2.024 0,-1.122 0.926,-2.025 2.049,-2.025 1.098,0 1.977,0.903 1.977,2.025 0,1.122 -0.905,2.024 -2.026,2.024 z m -1.635,13.907 v -12.271 l 3.271,-0.515 v 12.785 h -3.271 z" /><path
       style="fill:#b0a79d"
       id="path3149"
       d="m 108.95627,175.171 c -1.537,0 -3.224,-0.488 -5.054,-1.439 l 1.172,-2.391 c 1,0.608 2.732,1.416 4.146,1.416 0.928,0 1.66,-0.61 1.66,-1.416 0,-0.854 -0.611,-1.293 -1.929,-1.537 l -1.465,-0.27 c -0.83,-0.146 -1.854,-0.73 -2.293,-1.269 -0.438,-0.537 -0.709,-1.439 -0.709,-2.245 0,-2.438 1.931,-4.075 4.832,-4.075 2,0 3.318,0.61 4.465,1.171 l -1.071,2.196 c -1.244,-0.634 -2.148,-0.902 -3.074,-0.902 -0.953,0 -1.586,0.487 -1.586,1.221 0,0.634 0.414,0.976 1.561,1.269 l 1.517,0.393 c 1.537,0.39 2.049,0.854 2.485,1.415 0.466,0.585 0.687,1.293 0.687,2.122 0,2.583 -2.147,4.341 -5.344,4.341 z" /><path
       style="fill:#b0a79d"
       id="path3151"
       d="m 124.73927,174.293 c -0.879,0.512 -1.854,0.779 -3.051,0.779 -3.438,0 -5.438,-2.391 -5.438,-6.439 0,-2.879 1.098,-4.782 2.562,-5.783 0.83,-0.562 2.049,-0.927 3.098,-0.927 0.83,0 1.732,0.193 2.416,0.562 0.466,0.244 0.687,0.415 1.222,0.878 l -1.586,2.147 c -0.658,-0.61 -1.365,-0.978 -1.979,-0.978 -1.463,0 -2.123,1.271 -2.123,4.197 0,1.635 0.224,2.61 0.636,3.147 0.344,0.438 0.901,0.708 1.465,0.708 0.756,0 1.438,-0.317 2.244,-1.025 l 0.194,-0.171 1.488,1.977 c -0.49,0.488 -0.708,0.659 -1.148,0.928 l 0,0 z" /><path
       style="fill:#b0a79d"
       id="path3153"
       d="m 135.00927,174.779 v -8.393 c 0,-1.245 -0.342,-1.708 -1.271,-1.708 -0.805,0 -1.854,0.488 -2.586,1.146 v 8.955 h -3.315 v -14.442 c 0,-1.171 -0.101,-2.345 -0.244,-2.855 l 3.344,-0.781 c 0.146,0.685 0.219,1.854 0.219,3.052 v 2.487 c 0,0.393 -0.049,0.903 -0.049,1.051 0.855,-0.807 2.271,-1.344 3.539,-1.344 1.586,0 2.854,0.686 3.244,1.781 0.244,0.708 0.318,1.123 0.318,2.318 v 8.733 h -3.199 l 0,0 z" /><path
       style="fill:#b0a79d"
       id="path3155"
       d="m 144.79227,169.559 v 0.098 c 0,1.929 0.95,3.025 2.635,3.025 1.123,0 2.172,-0.415 3.172,-1.245 l 1.27,1.952 c -1.438,1.171 -2.95,1.73 -4.709,1.73 -3.586,0 -5.901,-2.536 -5.901,-6.466 0,-2.245 0.463,-3.731 1.561,-4.953 1.025,-1.146 2.271,-1.684 3.931,-1.684 1.438,0 2.807,0.488 3.608,1.318 1.148,1.171 1.66,2.854 1.66,5.465 v 0.756 h -7.223 v 0.002 l -0.004,0.002 0,0 z m 3.83,-2.537 c 0,-0.927 -0.101,-1.415 -0.392,-1.879 -0.315,-0.488 -0.781,-0.732 -1.438,-0.732 -1.246,0 -1.953,0.978 -1.953,2.708 v 0.051 h 3.783 l 0,-0.148 0,0 0,0 z" /><path
       style="fill:#b0a79d"
       id="path3157"
       d="m 170.26527,160.652 h -4.049 v 14.127 h -3.465 v -14.127 h -4.148 v -2.83 h 12.225 l -0.563,2.83 z" /><path
       style="fill:#b0a79d"
       id="path3159"
       d="m 173.26527,169.559 v 0.098 c 0,1.929 0.953,3.025 2.635,3.025 1.123,0 2.172,-0.415 3.172,-1.245 l 1.271,1.952 c -1.439,1.171 -2.953,1.73 -4.709,1.73 -3.586,0 -5.904,-2.536 -5.904,-6.466 0,-2.245 0.463,-3.731 1.562,-4.953 1.022,-1.146 2.27,-1.684 3.928,-1.684 1.438,0 2.807,0.488 3.611,1.318 1.146,1.171 1.655,2.854 1.655,5.465 v 0.756 h -7.223 l 0.002,0.004 0,0 z m 3.832,-2.537 c 0,-0.927 -0.098,-1.415 -0.391,-1.879 -0.318,-0.488 -0.781,-0.732 -1.439,-0.732 -1.244,0 -1.953,0.978 -1.953,2.708 v 0.051 h 3.783 v -0.148 l 0,0 0,0 z" /><path
       style="fill:#b0a79d"
       id="path3161"
       d="m 190.93127,174.293 c -0.877,0.512 -1.854,0.779 -3.049,0.779 -3.441,0 -5.441,-2.391 -5.441,-6.439 0,-2.879 1.101,-4.782 2.562,-5.783 0.828,-0.562 2.049,-0.927 3.098,-0.927 0.83,0 1.732,0.193 2.416,0.562 0.463,0.244 0.684,0.415 1.219,0.878 l -1.586,2.147 c -0.658,-0.61 -1.365,-0.978 -1.975,-0.978 -1.465,0 -2.123,1.271 -2.123,4.197 0,1.635 0.219,2.61 0.635,3.147 0.34,0.438 0.902,0.708 1.463,0.708 0.756,0 1.439,-0.317 2.244,-1.025 l 0.195,-0.171 1.487,1.977 c -0.485,0.488 -0.706,0.659 -1.145,0.928 z" /><path
       style="fill:#b0a79d"
       id="path3163"
       d="m 201.19827,174.779 v -8.393 c 0,-1.245 -0.34,-1.708 -1.268,-1.708 -0.805,0 -1.855,0.488 -2.586,1.146 v 8.955 h -3.318 v -14.442 c 0,-1.171 -0.098,-2.345 -0.244,-2.855 l 3.345,-0.781 c 0.146,0.685 0.221,1.854 0.221,3.052 v 2.487 c 0,0.393 -0.049,0.903 -0.049,1.051 0.854,-0.807 2.268,-1.344 3.537,-1.344 1.586,0 2.854,0.686 3.242,1.781 0.243,0.708 0.317,1.123 0.317,2.318 v 8.733 h -3.197 l 0,0 z" /><path
       style="fill:#b0a79d"
       id="path3165"
       d="m 214.81327,174.779 v -8.125 c 0,-1.415 -0.244,-1.83 -1.098,-1.83 -0.658,0 -1.512,0.439 -2.271,1.122 v 8.833 h -3.27 v -9.052 c 0,-1.074 -0.146,-2.099 -0.439,-2.928 l 2.902,-0.83 c 0.293,0.513 0.465,1.049 0.465,1.562 0.488,-0.341 0.902,-0.634 1.439,-0.927 0.657,-0.342 1.512,-0.537 2.246,-0.537 1.391,0 2.606,0.732 3,1.808 0.172,0.463 0.241,1 0.241,1.779 v 9.125 h -3.215 z" /><path
       style="fill:#b0a79d"
       id="path3167"
       d="m 223.45227,160.872 c -1.099,0 -2.003,-0.902 -2.003,-2.024 0,-1.122 0.929,-2.025 2.052,-2.025 1.098,0 1.977,0.903 1.977,2.025 0,1.122 -0.905,2.024 -2.026,2.024 z m -1.635,13.907 v -12.271 l 3.271,-0.515 v 12.785 h -3.271 z" /><path
       style="fill:#b0a79d"
       id="path3169"
       d="m 232.57427,175.171 c -1.534,0 -3.221,-0.488 -5.049,-1.439 l 1.17,-2.391 c 1,0.608 2.732,1.416 4.148,1.416 0.928,0 1.658,-0.61 1.658,-1.416 0,-0.854 -0.609,-1.293 -1.931,-1.537 l -1.463,-0.27 c -0.83,-0.146 -1.854,-0.73 -2.293,-1.269 -0.438,-0.537 -0.709,-1.439 -0.709,-2.245 0,-2.438 1.928,-4.075 4.832,-4.075 2,0 3.318,0.61 4.465,1.171 l -1.071,2.196 c -1.244,-0.634 -2.146,-0.902 -3.074,-0.902 -0.951,0 -1.586,0.487 -1.586,1.221 0,0.634 0.416,0.976 1.561,1.269 l 1.513,0.393 c 1.536,0.39 2.053,0.854 2.487,1.415 0.465,0.585 0.687,1.293 0.687,2.122 0,2.583 -2.147,4.341 -5.345,4.341 z" /><path
       style="fill:#b0a79d"
       id="path3171"
       d="m 248.36027,174.293 c -0.879,0.512 -1.854,0.779 -3.051,0.779 -3.438,0 -5.441,-2.391 -5.441,-6.439 0,-2.879 1.103,-4.782 2.562,-5.783 0.83,-0.562 2.049,-0.927 3.1,-0.927 0.828,0 1.732,0.193 2.414,0.562 0.465,0.244 0.687,0.415 1.224,0.878 l -1.586,2.147 c -0.658,-0.61 -1.367,-0.978 -1.979,-0.978 -1.463,0 -2.123,1.271 -2.123,4.197 0,1.635 0.224,2.61 0.635,3.147 0.345,0.438 0.902,0.708 1.468,0.708 0.756,0 1.438,-0.317 2.241,-1.025 l 0.195,-0.171 1.488,1.977 c -0.489,0.488 -0.707,0.659 -1.147,0.928 l 0,0 z" /><path
       style="fill:#b0a79d"
       id="path3173"
       d="m 258.62827,174.779 v -8.393 c 0,-1.245 -0.34,-1.708 -1.269,-1.708 -0.805,0 -1.854,0.488 -2.586,1.146 v 8.955 h -3.317 v -14.442 c 0,-1.171 -0.099,-2.345 -0.244,-2.855 l 3.342,-0.781 c 0.146,0.685 0.221,1.854 0.221,3.052 v 2.487 c 0,0.393 -0.049,0.903 -0.049,1.051 0.855,-0.807 2.271,-1.344 3.537,-1.344 1.586,0 2.855,0.686 3.244,1.781 0.244,0.708 0.317,1.123 0.317,2.318 v 8.733 h -3.196 l 0,0 z" /><path
       style="fill:#b0a79d"
       id="path3175"
       d="m 268.41327,169.559 v 0.098 c 0,1.929 0.95,3.025 2.635,3.025 1.123,0 2.172,-0.415 3.172,-1.245 l 1.27,1.952 c -1.438,1.171 -2.948,1.73 -4.709,1.73 -3.588,0 -5.901,-2.536 -5.901,-6.466 0,-2.245 0.465,-3.731 1.561,-4.953 1.025,-1.146 2.271,-1.684 3.928,-1.684 1.439,0 2.81,0.488 3.611,1.318 1.146,1.171 1.658,2.854 1.658,5.465 v 0.756 h -7.221 v 0.002 l -0.004,0.002 0,0 z m 3.829,-2.537 c 0,-0.927 -0.098,-1.415 -0.391,-1.879 -0.313,-0.488 -0.781,-0.732 -1.438,-0.732 -1.244,0 -1.951,0.978 -1.951,2.708 v 0.051 h 3.781 v -0.146 l -10e-4,-0.002 0,0 z" /><path
       style="fill:#b0a79d"
       id="path3177"
       d="m 292.44827,174.779 v -7.562 h -4.881 v 7.562 h -3.391 v -16.957 h 3.391 v 6.587 h 4.881 v -6.587 h 3.466 v 16.957 h -3.466 z" /><path
       style="fill:#b0a79d"
       id="path3179"
       d="m 308.57427,173.317 c -0.948,1.074 -2.192,1.732 -4.122,1.732 -3.392,0 -5.609,-2.538 -5.609,-6.466 0,-3.93 2.244,-6.539 5.609,-6.539 1.78,0 3.174,0.608 4.245,1.879 1,1.171 1.439,2.538 1.439,4.562 0.002,2.147 -0.487,3.611 -1.562,4.832 z m -2.657,-8.2 c -0.318,-0.415 -0.83,-0.657 -1.416,-0.657 -0.781,0 -1.414,0.486 -1.685,1.269 -0.219,0.659 -0.342,1.537 -0.342,2.781 0,1.438 0.146,2.513 0.416,3.146 0.293,0.685 1.023,1.025 1.658,1.025 1.416,0 2.021,-1.271 2.021,-4.221 0.005,-1.683 -0.213,-2.78 -0.652,-3.343 l 0,0 z" /><path
       style="fill:#b0a79d"
       id="path3181"
       d="m 320.82327,174.293 c -0.879,0.512 -1.854,0.779 -3.049,0.779 -3.438,0 -5.438,-2.391 -5.438,-6.439 0,-2.879 1.098,-4.782 2.561,-5.783 0.828,-0.562 2.049,-0.927 3.1,-0.927 0.828,0 1.73,0.193 2.416,0.562 0.466,0.244 0.687,0.415 1.222,0.878 l -1.586,2.147 c -0.658,-0.61 -1.365,-0.978 -1.979,-0.978 -1.465,0 -2.123,1.271 -2.123,4.197 0,1.635 0.224,2.61 0.64,3.147 0.34,0.438 0.897,0.708 1.463,0.708 0.756,0 1.438,-0.317 2.244,-1.025 l 0.19,-0.171 1.488,1.977 c -0.489,0.488 -0.709,0.659 -1.149,0.928 z" /><path
       style="fill:#b0a79d"
       id="path3183"
       d="m 331.09327,174.779 v -8.393 c 0,-1.245 -0.342,-1.708 -1.271,-1.708 -0.805,0 -1.854,0.488 -2.586,1.146 v 8.955 h -3.317 v -14.442 c 0,-1.171 -0.099,-2.345 -0.244,-2.855 l 3.344,-0.781 c 0.146,0.685 0.219,1.854 0.219,3.052 v 2.487 c 0,0.393 -0.049,0.903 -0.049,1.051 0.855,-0.807 2.271,-1.344 3.539,-1.344 1.586,0 2.855,0.686 3.244,1.781 0.244,0.708 0.316,1.123 0.316,2.318 v 8.733 h -3.195 l 0,0 z" /><path
       style="fill:#b0a79d"
       id="path3185"
       d="m 342.02427,175.171 c -1.537,0 -3.221,-0.488 -5.051,-1.439 l 1.172,-2.391 c 1,0.608 2.732,1.416 4.146,1.416 0.928,0 1.657,-0.61 1.657,-1.416 0,-0.854 -0.606,-1.293 -1.928,-1.537 l -1.465,-0.27 c -0.828,-0.146 -1.855,-0.73 -2.293,-1.269 -0.439,-0.537 -0.707,-1.439 -0.707,-2.245 0,-2.438 1.928,-4.075 4.83,-4.075 2.002,0 3.318,0.61 4.465,1.171 l -1.072,2.196 c -1.244,-0.634 -2.146,-0.902 -3.071,-0.902 -0.951,0 -1.589,0.487 -1.589,1.221 0,0.634 0.414,0.976 1.562,1.269 l 1.514,0.393 c 1.537,0.39 2.049,0.854 2.488,1.415 0.463,0.585 0.684,1.293 0.684,2.122 0.002,2.583 -2.146,4.341 -5.342,4.341 l 0,0 z" /><path
       style="fill:#b0a79d"
       id="path3187"
       d="m 357.80727,174.293 c -0.879,0.512 -1.854,0.779 -3.049,0.779 -3.441,0 -5.441,-2.391 -5.441,-6.439 0,-2.879 1.101,-4.782 2.562,-5.783 0.828,-0.562 2.049,-0.927 3.098,-0.927 0.83,0 1.732,0.193 2.416,0.562 0.463,0.244 0.687,0.415 1.219,0.878 l -1.586,2.147 c -0.655,-0.61 -1.362,-0.978 -1.975,-0.978 -1.465,0 -2.123,1.271 -2.123,4.197 0,1.635 0.219,2.61 0.635,3.147 0.34,0.438 0.902,0.708 1.463,0.708 0.759,0 1.439,-0.317 2.244,-1.025 l 0.195,-0.171 1.488,1.977 c -0.485,0.488 -0.706,0.659 -1.146,0.928 l 0,0 z" /><path
       style="fill:#b0a79d"
       id="path3189"
       d="m 368.07427,174.779 v -8.393 c 0,-1.245 -0.34,-1.708 -1.268,-1.708 -0.805,0 -1.854,0.488 -2.586,1.146 v 8.955 h -3.318 v -14.442 c 0,-1.171 -0.098,-2.345 -0.244,-2.855 l 3.345,-0.781 c 0.145,0.685 0.221,1.854 0.221,3.052 v 2.487 c 0,0.393 -0.049,0.903 -0.049,1.051 0.854,-0.807 2.268,-1.344 3.537,-1.344 1.586,0 2.854,0.686 3.242,1.781 0.243,0.708 0.317,1.123 0.317,2.318 v 8.733 h -3.197 l 0,0 z" /><path
       style="fill:#b0a79d"
       id="path3191"
       d="m 383.15527,175.121 c -0.416,-0.294 -0.758,-0.708 -0.977,-1.221 -0.805,0.781 -1.979,1.196 -3.295,1.196 -1.756,0 -3.271,-0.83 -3.687,-2.025 -0.192,-0.561 -0.268,-1.22 -0.268,-2.487 v -8.002 l 3.221,-0.61 v 8.027 c 0,1.122 0.101,1.708 0.271,2.049 0.172,0.342 0.658,0.586 1.145,0.586 0.808,0 1.781,-0.586 2.025,-1.196 v -8.783 l 3.123,-0.658 v 9.539 c 0,0.83 0.27,1.686 0.756,2.271 l -2.314,1.314 z" /><path
       style="fill:#b0a79d"
       id="path3193"
       d="m 391.56927,175.072 c -1.391,0 -2.514,-0.657 -2.899,-1.708 -0.244,-0.634 -0.293,-1.023 -0.293,-2.806 v -9.32 c 0,-1.635 -0.052,-2.635 -0.175,-3.757 l 3.347,-0.756 c 0.121,0.683 0.17,1.488 0.17,3.245 v 9.734 c 0,2.146 0.022,2.438 0.221,2.78 0.121,0.221 0.389,0.342 0.658,0.342 0.121,0 0.195,0 0.365,-0.049 l 0.561,1.952 c -0.564,0.221 -1.248,0.343 -1.955,0.343 l 0,0 z" /><path
       style="fill:#b0a79d"
       id="path3195"
       d="m 398.27627,169.559 v 0.098 c 0,1.929 0.951,3.025 2.638,3.025 1.12,0 2.172,-0.415 3.172,-1.245 l 1.27,1.952 c -1.438,1.171 -2.953,1.73 -4.709,1.73 -3.586,0 -5.904,-2.536 -5.904,-6.466 0,-2.245 0.466,-3.731 1.562,-4.953 1.025,-1.146 2.27,-1.684 3.93,-1.684 1.439,0 2.808,0.488 3.611,1.318 1.145,1.171 1.658,2.854 1.658,5.465 v 0.756 h -7.228 v 0.004 l 0,0 z m 3.832,-2.537 c 0,-0.927 -0.098,-1.415 -0.391,-1.879 -0.318,-0.488 -0.781,-0.732 -1.439,-0.732 -1.244,0 -1.953,0.978 -1.953,2.708 v 0.051 h 3.783 v -0.148 l 0,0 z" /><path
       style="fill:#f29400"
       id="path3197"
       d="m 128.27427,202.78 -1.192,-4.023 h -4.98 l -1.195,4.023 h -3.561 l 5.561,-17.006 h 3.687 l 5.344,17.006 h -3.664 l 0,0 z m -2.953,-10.271 c -0.17,-0.781 -0.682,-3.001 -0.682,-3.001 0,0 -0.488,2 -0.805,3.269 -0.318,1.222 -0.537,2.025 -0.904,3.147 h 3.318 c 10e-4,0 -0.56,-1.78 -0.927,-3.415 z" /><path
       style="fill:#f29400"
       id="path3199"
       d="m 146.57327,202.78 v -8.247 c 0,-1.486 -0.17,-1.779 -1.021,-1.779 -0.611,0 -1.465,0.415 -2.172,1.05 v 8.979 h -3.101 v -8.125 c 0,-1.562 -0.221,-1.928 -1.123,-1.928 -0.608,0 -1.438,0.317 -2.146,0.952 v 9.101 h -3.195 v -8.71 c 0,-1.806 -0.123,-2.587 -0.465,-3.194 l 2.953,-0.808 c 0.219,0.342 0.318,0.635 0.438,1.271 0.855,-0.829 1.904,-1.271 3.054,-1.271 1.022,0 1.879,0.342 2.537,1.024 0.172,0.171 0.342,0.391 0.485,0.608 1.148,-1.171 2.172,-1.635 3.539,-1.635 0.978,0 1.902,0.293 2.463,0.781 0.709,0.609 0.931,1.342 0.931,3.05 v 8.881 h -3.177 l 0,0 0,0 z" /><path
       style="fill:#f29400"
       id="path3201"
       d="m 161.99227,202.049 c -0.854,0.684 -1.704,0.977 -2.729,0.977 -1.219,0 -2.072,-0.366 -2.781,-1.146 -0.098,0.438 -0.121,0.561 -0.342,0.9 h -2.928 c 0.244,-0.562 0.315,-0.927 0.315,-2.658 v -11.563 c 0,-1.537 -0.049,-2.366 -0.221,-3.074 l 3.344,-0.779 c 0.101,0.854 0.121,1.365 0.121,2.221 v 2.952 c 0,0.364 -0.021,0.901 -0.072,1.099 0.636,-0.684 1.515,-1.001 2.658,-1.001 3.051,0 4.953,2.44 4.953,6.344 0.001,2.532 -0.78,4.507 -2.318,5.728 z m -1.534,-7.784 c -0.244,-1.073 -0.931,-1.586 -1.781,-1.586 -0.854,0 -1.439,0.537 -1.854,1.001 v 5.758 c 0.439,0.391 0.951,0.806 1.83,0.806 0.808,0 1.316,-0.315 1.586,-0.977 0.291,-0.683 0.365,-1.342 0.365,-2.879 -0.002,-1.122 -0.025,-1.586 -0.146,-2.123 z" /><path
       style="fill:#f29400"
       id="path3203"
       d="m 170.16927,197.559 v 0.098 c 0,1.93 0.948,3.025 2.635,3.025 1.123,0 2.172,-0.414 3.172,-1.244 l 1.271,1.952 c -1.439,1.171 -2.953,1.731 -4.709,1.731 -3.591,0 -5.906,-2.537 -5.906,-6.467 0,-2.245 0.465,-3.731 1.562,-4.953 1.025,-1.146 2.271,-1.684 3.931,-1.684 1.438,0 2.807,0.488 3.608,1.317 1.146,1.172 1.658,2.854 1.658,5.466 v 0.756 l -7.222,0.003 0,0 z m 3.83,-2.537 c 0,-0.927 -0.101,-1.415 -0.394,-1.879 -0.313,-0.488 -0.778,-0.73 -1.438,-0.73 -1.244,0 -1.951,0.977 -1.951,2.708 v 0.05 h 3.781 l 0.002,-0.149 0,0 0,0 z" /><path
       style="fill:#f29400"
       id="path3205"
       d="m 186.29827,193.143 c -0.318,-0.171 -0.586,-0.244 -0.951,-0.244 -0.732,0 -1.393,0.342 -2.002,1.05 v 8.832 h -3.271 v -8.345 c 0,-1.684 -0.192,-2.952 -0.463,-3.659 l 2.931,-0.781 c 0.293,0.515 0.463,1.073 0.512,1.781 0.709,-0.951 1.709,-1.781 2.928,-1.781 0.488,0 0.709,0.051 1.221,0.271 l -0.905,2.876 z" /><path
       style="fill:#f29400"
       id="path3207"
       d="m 198.61427,192.583 c -0.313,0 -0.655,-0.051 -0.854,-0.073 0.488,0.585 0.729,1.22 0.729,2.049 0,2.146 -1.948,3.709 -4.608,3.709 -0.146,0 -0.244,0 -0.488,-0.024 -0.83,0.393 -1.293,0.685 -1.293,1.024 0,0.171 0.195,0.293 0.537,0.293 l 1.756,0.024 c 1.904,0.022 2.904,0.315 3.783,1.122 0.729,0.684 1.072,1.535 1.072,2.658 0,1.051 -0.316,1.854 -1,2.586 -1.101,1.173 -2.979,1.61 -4.931,1.61 -1.778,0 -3.608,-0.292 -4.731,-1.342 -0.687,-0.635 -1.023,-1.366 -1.023,-2.222 0,-0.684 0.17,-1.023 0.291,-1.27 h 3.025 c -0.121,0.293 -0.146,0.464 -0.146,0.806 0,1 0.83,1.537 2.347,1.537 0.825,0 1.534,-0.098 2.049,-0.415 0.485,-0.293 0.805,-0.757 0.805,-1.269 0,-1.123 -1,-1.464 -2.293,-1.488 l -1.391,-0.022 c -1.468,-0.024 -2.416,-0.146 -3.002,-0.393 -0.584,-0.22 -0.951,-0.781 -0.951,-1.635 0,-0.806 0.244,-1.562 2.295,-2.1 -1.81,-0.464 -2.688,-1.609 -2.688,-3.466 0,-2.562 2.074,-4.221 5.271,-4.221 0.707,0 1.342,0.098 2.246,0.317 0.682,0.171 1.121,0.269 1.537,0.269 0.899,0 1.827,-0.391 2.586,-1.074 l 1.362,2.074 c -0.707,0.667 -1.388,0.936 -2.292,0.936 l 0,0 z m -5.465,-0.122 c -1.244,0 -1.951,0.683 -1.951,1.854 0,1.271 0.781,1.781 1.931,1.781 1.293,0 2,-0.634 2,-1.781 -0.001,-1.172 -0.736,-1.854 -1.98,-1.854 z" /><path
       style="fill:#f29400"
       id="path3209"
       d="m 201.54227,197.51 v -2.83 h 5.854 v 2.83 h -5.854 z" /><path
       style="fill:#f29400"
       id="path3211"
       d="m 224.56927,202.927 h -3.731 l -1.515,-6.905 c -0.485,-2.122 -0.758,-4.221 -0.807,-4.831 -0.047,0.393 -0.34,2.538 -0.805,4.782 l -1.414,6.954 h -3.879 l -4.054,-17.104 h 3.611 l 1.465,6.688 c 0.685,3.172 0.902,5.587 0.902,5.587 0.074,-0.659 0.367,-3.074 0.879,-5.417 l 1.514,-6.855 h 3.732 l 1.561,7.589 c 0.318,1.587 0.732,4.488 0.732,4.488 0.049,-0.537 0.561,-3.977 0.928,-5.636 l 1.392,-6.441 h 3.586 l -4.097,17.101 0,0 z" /><path
       style="fill:#f29400"
       id="path3213"
       d="m 232.81527,197.559 v 0.098 c 0,1.93 0.951,3.025 2.635,3.025 1.123,0 2.175,-0.414 3.175,-1.244 l 1.27,1.952 c -1.438,1.171 -2.953,1.731 -4.709,1.731 -3.586,0 -5.904,-2.537 -5.904,-6.467 0,-2.245 0.463,-3.731 1.562,-4.953 1.022,-1.146 2.27,-1.684 3.93,-1.684 1.439,0 2.805,0.488 3.611,1.317 1.145,1.172 1.658,2.854 1.658,5.466 v 0.756 l -7.228,0.003 0,0 z m 3.832,-2.537 c 0,-0.927 -0.098,-1.415 -0.391,-1.879 -0.318,-0.488 -0.781,-0.73 -1.439,-0.73 -1.244,0 -1.953,0.977 -1.953,2.708 v 0.05 h 3.783 v -0.149 l 0,0 z" /><path
       style="fill:#f29400"
       id="path3215"
       d="m 244.35827,188.874 c -1.098,0 -2.002,-0.903 -2.002,-2.025 0,-1.122 0.928,-2.025 2.051,-2.025 1.101,0 1.979,0.903 1.979,2.025 0,1.122 -0.907,2.025 -2.028,2.025 l 0,0 z m -1.635,13.906 v -12.271 l 3.27,-0.514 v 12.784 h -3.27 z" /><path
       style="fill:#f29400"
       id="path3217"
       d="m 257.29027,202.78 c -0.099,-0.193 -0.146,-0.391 -0.195,-0.73 -0.805,0.708 -1.758,1.05 -2.879,1.05 -3.172,0 -5.174,-2.465 -5.174,-6.344 0,-3.904 2.172,-6.588 5.344,-6.588 0.902,0 1.611,0.22 2.221,0.708 -0.049,-0.271 -0.098,-1.123 -0.098,-1.854 v -4.294 l 3.246,0.512 v 12.98 c 0,3.074 0.242,4.074 0.463,4.562 l -2.928,-0.002 0,0 z m -0.733,-9.197 c -0.609,-0.537 -1.195,-0.808 -1.781,-0.808 -1.463,0 -2.098,1.222 -2.098,4.002 0,2.686 0.561,3.562 2.27,3.562 0.609,0 1.293,-0.415 1.609,-0.808 v -5.948 z" /><path
       style="fill:#f29400"
       id="path3219"
       d="m 266.34327,197.559 v 0.098 c 0,1.93 0.951,3.025 2.635,3.025 1.123,0 2.172,-0.414 3.172,-1.244 l 1.271,1.952 c -1.441,1.171 -2.953,1.731 -4.709,1.731 -3.588,0 -5.906,-2.537 -5.906,-6.467 0,-2.245 0.465,-3.731 1.561,-4.953 1.025,-1.146 2.271,-1.684 3.933,-1.684 1.438,0 2.807,0.488 3.606,1.317 1.146,1.172 1.658,2.854 1.658,5.466 v 0.756 l -7.221,0.003 0,0 z m 3.83,-2.537 c 0,-0.927 -0.099,-1.415 -0.392,-1.879 -0.315,-0.488 -0.78,-0.73 -1.438,-0.73 -1.244,0 -1.951,0.977 -1.951,2.708 v 0.05 h 3.781 v -0.149 l 0,0 0,0 z" /><path
       style="fill:#f29400"
       id="path3221"
       d="m 282.88627,202.78 v -8.125 c 0,-1.415 -0.244,-1.83 -1.1,-1.83 -0.658,0 -1.513,0.439 -2.269,1.123 v 8.832 h -3.27 v -9.052 c 0,-1.074 -0.146,-2.099 -0.439,-2.928 l 2.902,-0.83 c 0.293,0.513 0.465,1.05 0.465,1.562 0.488,-0.342 0.902,-0.634 1.438,-0.927 0.658,-0.342 1.515,-0.537 2.244,-0.537 1.394,0 2.611,0.732 3.002,1.808 0.17,0.464 0.244,1 0.244,1.779 v 9.125 h -3.217 l 0,0 z" /></g><path
     style="fill:#f29400"
     id="path3223"
     d="m 387.71827,0.001 c -5.676,0 -11.293,2.508 -15.078,7.312 l -58.646,74.471 -58.644,-74.471 c -3.637,-4.616 -9.188,-7.312 -15.063,-7.312 l 0,0 c -5.878,0 -11.431,2.693 -15.062,7.312 l -58.641,74.469 -58.642,-74.468 c -3.635,-4.617 -9.188,-7.312 -15.062,-7.312 -5.878,0 -11.431,2.693 -15.064,7.312 l -73.704,93.603 c -6.554,8.317 -5.119,20.375 3.2,26.927 8.32,6.552 20.377,5.118 26.929,-3.202 l 58.641,-74.469 58.638,74.468 c 3.635,4.617 9.188,7.312 15.064,7.312 5.876,0 11.43,-2.693 15.062,-7.312 l 58.644,-74.469 58.644,74.469 c 3.637,4.617 9.188,7.312 15.062,7.312 5.879,0 11.432,-2.693 15.063,-7.312 l 73.709,-93.6 c 6.553,-8.32 5.119,-20.376 -3.201,-26.93 -3.513,-2.767 -7.699,-4.11 -11.849,-4.11 z" /><path
     style="fill:#b0a79d"
     id="path3225"
     d="m 70.08927,109.201 c 0,-12.563 10.186,-22.75 22.75,-22.75 12.562,0 22.75,10.187 22.75,22.75 0,12.564 -10.188,22.75 -22.75,22.75 -12.565,0 -22.75,-10.185 -22.75,-22.75" /></svg>