<?xml version="1.0" encoding="UTF-8"?>
<svg id="Ebene_1" data-name="Ebene 1" xmlns="http://www.w3.org/2000/svg" viewBox="0 0 975.77 176.29">
  <defs>
    <style>
      .cls-1 {
        fill: #2a3a45;
        stroke-width: 0px;
      }
    </style>
  </defs>
  <g>
    <path class="cls-1" d="m8.92,130.47H0v-2.97h21.11v2.97h-8.92v34.27h-3.26v-34.27Z"/>
    <path class="cls-1" d="m36.45,127.5h2.72v17.86h.11c.82-2.48,2.34-6.91,8.6-6.91,1.41,0,6.8.81,6.8,7.29v19h-2.72v-16.19c0-2.64,0-7.5-4.62-7.5s-8.16,6.85-8.16,13.87v9.82h-2.72v-37.24Z"/>
    <path class="cls-1" d="m90.26,164.68c-1.58.38-3.48.65-5.66.65-7.94,0-12.3-5.13-12.3-14.14,0-8.47,3.54-12.74,9.85-12.74s8.65,4.91,8.65,9.23v1.35h-15.18c-.05.92-.05,1.78-.05,2.65,0,1.94.05,11.06,9.96,11.06,1.47,0,3.43-.27,4.73-.7v2.65Zm-2.72-18.24c0-1.57-1.09-5.4-5.44-5.4-4.79,0-5.82,3.72-6.15,5.4h11.59Z"/>
    <path class="cls-1" d="m142.93,144.71c3.92,2.1,8,4.32,8,10.2,0,7.83-6.37,10.42-12.84,10.42-4.41,0-7.02-.76-7.89-.92v-3.29c1.25.38,3.7,1.13,8.7,1.13,4.46,0,8.76-2.48,8.76-6.85,0-4.86-4.41-6.48-6.69-7.77l-3.1-1.67c-3.43-1.89-8.05-3.94-8.05-9.55,0-1.57.65-9.5,11.42-9.5,2.94,0,6.15.59,7.45.92v3.4c-1.2-.43-4.03-1.24-7.45-1.24-5.66,0-8.16,2.64-8.16,6.15s3.59,5.23,6.64,6.91l3.21,1.67Z"/>
    <path class="cls-1" d="m184.06,164.68c-1.58.38-3.48.65-5.66.65-7.94,0-12.3-5.13-12.3-14.14,0-8.47,3.54-12.74,9.85-12.74s8.65,4.91,8.65,9.23v1.35h-15.18c-.05.92-.05,1.78-.05,2.65,0,1.94.05,11.06,9.96,11.06,1.47,0,3.43-.27,4.73-.7v2.65Zm-2.72-18.24c0-1.57-1.09-5.4-5.44-5.4-4.79,0-5.82,3.72-6.15,5.4h11.59Z"/>
    <path class="cls-1" d="m202.24,139.05h2.72v5.23h.11c1.14-3.18,3.43-5.83,8.22-5.83v2.91c-6.96,0-8.32,7.93-8.32,13.01v10.36h-2.72v-25.69Z"/>
    <path class="cls-1" d="m226.18,139.05h2.99l8.54,21.53,7.51-21.53h2.99l-8.92,25.69h-2.99l-10.12-25.69Z"/>
    <path class="cls-1" d="m263.5,127.5h4.03v4.37h-4.03v-4.37Zm.65,11.55h2.72v25.69h-2.72v-25.69Z"/>
    <path class="cls-1" d="m302.02,164.84c-1.09.27-2.39.49-4.46.49-8.81,0-12.68-5.67-12.68-13.82,0-7.72,2.83-13.06,9.79-13.06,7.45,0,8.27,5.67,8.27,7.99h-3.54c0-2.86-1.58-5.4-4.79-5.4-4.9,0-6.48,5.29-6.48,10.04,0,7.23,3.16,11.66,9.85,11.66,2.12,0,3.05-.27,4.03-.49v2.59Z"/>
    <path class="cls-1" d="m335.65,164.68c-1.58.38-3.48.65-5.66.65-7.94,0-12.3-5.13-12.3-14.14,0-8.47,3.54-12.74,9.85-12.74s8.65,4.91,8.65,9.23v1.35h-15.18c-.05.92-.05,1.78-.05,2.65,0,1.94.05,11.06,9.96,11.06,1.47,0,3.43-.27,4.73-.7v2.65Zm-2.72-18.24c0-1.57-1.09-5.4-5.44-5.4-4.79,0-5.82,3.72-6.15,5.4h11.59Z"/>
    <path class="cls-1" d="m377.92,127.5h16.7v2.97h-13.44v13.28h12.78v2.97h-12.78v15.06h13.87v2.97h-17.14v-37.24Z"/>
    <path class="cls-1" d="m417.59,151.3l-7.94-12.25h3.21l6.37,9.77,6.42-9.77h3.21l-7.94,12.25,8.7,13.44h-3.21l-7.13-10.96-7.29,10.96h-3.21l8.81-13.44Z"/>
    <path class="cls-1" d="m460.62,164.84c-1.09.27-2.39.49-4.46.49-8.81,0-12.68-5.67-12.68-13.82,0-7.72,2.83-13.06,9.79-13.06,7.45,0,8.27,5.67,8.27,7.99h-3.54c0-2.86-1.58-5.4-4.79-5.4-4.89,0-6.47,5.29-6.47,10.04,0,7.23,3.16,11.66,9.85,11.66,2.12,0,3.05-.27,4.03-.49v2.59Z"/>
    <path class="cls-1" d="m494.25,164.68c-1.58.38-3.48.65-5.66.65-7.94,0-12.3-5.13-12.3-14.14,0-8.47,3.54-12.74,9.85-12.74s8.65,4.91,8.65,9.23v1.35h-15.18c-.05.92-.05,1.78-.05,2.65,0,1.94.05,11.06,9.96,11.06,1.47,0,3.43-.27,4.73-.7v2.65Zm-2.72-18.24c0-1.57-1.09-5.4-5.44-5.4-4.79,0-5.82,3.72-6.15,5.4h11.59Z"/>
    <path class="cls-1" d="m512.53,127.5h2.72v37.24h-2.72v-37.24Z"/>
    <path class="cls-1" d="m535.38,127.5h2.72v37.24h-2.72v-37.24Z"/>
    <path class="cls-1" d="m573.9,164.68c-1.58.38-3.48.65-5.66.65-7.94,0-12.29-5.13-12.29-14.14,0-8.47,3.54-12.74,9.85-12.74s8.65,4.91,8.65,9.23v1.35h-15.18c-.05.92-.05,1.78-.05,2.65,0,1.94.05,11.06,9.96,11.06,1.47,0,3.43-.27,4.73-.7v2.65Zm-2.72-18.24c0-1.57-1.09-5.4-5.44-5.4-4.79,0-5.82,3.72-6.15,5.4h11.59Z"/>
    <path class="cls-1" d="m592.02,139.05h2.72v6.31h.11c.82-2.48,2.34-6.91,8.6-6.91,1.41,0,6.75.81,6.75,7.29v19h-2.72v-16.19c0-2.64,0-7.5-4.57-7.5s-8.16,6.85-8.16,13.87v9.82h-2.72v-25.69Z"/>
    <path class="cls-1" d="m645.12,164.84c-1.09.27-2.39.49-4.46.49-8.82,0-12.68-5.67-12.68-13.82,0-7.72,2.83-13.06,9.79-13.06,7.45,0,8.27,5.67,8.27,7.99h-3.54c0-2.86-1.58-5.4-4.79-5.4-4.9,0-6.47,5.29-6.47,10.04,0,7.23,3.16,11.66,9.85,11.66,2.12,0,3.05-.27,4.03-.49v2.59Z"/>
    <path class="cls-1" d="m678.75,164.68c-1.58.38-3.48.65-5.66.65-7.94,0-12.29-5.13-12.29-14.14,0-8.47,3.54-12.74,9.85-12.74s8.65,4.91,8.65,9.23v1.35h-15.18c-.05.92-.05,1.78-.05,2.65,0,1.94.05,11.06,9.96,11.06,1.47,0,3.43-.27,4.73-.7v2.65Zm-2.72-18.24c0-1.57-1.09-5.4-5.44-5.4-4.79,0-5.82,3.72-6.15,5.4h11.59Z"/>
    <path class="cls-1" d="m742.24,163.06c-1.41.65-4.03,2.27-9.3,2.27-10.5,0-13.93-9.61-13.93-20.19,0-8.85,2.94-18.24,13.66-18.24,3.37,0,6.2,1.3,8.05,3.08,2.07,1.89,2.94,4.37,2.94,7.66h-3.7c0-3.56-1.85-7.66-7.67-7.66-7.4,0-9.68,7.61-9.68,15.44,0,6.75,1.63,16.84,10.55,16.84,5.33,0,7.83-2.05,9.08-2.97v3.78Z"/>
    <path class="cls-1" d="m757.75,151.94c0-7.5,3.32-13.49,10.66-13.49s10.55,5.99,10.55,13.49-3.21,13.39-10.55,13.39-10.66-5.94-10.66-13.39Zm10.5,10.8c5.55,0,7.45-4.48,7.45-10.47s-1.9-11.22-7.45-11.22-7.24,5.23-7.24,11.22,1.69,10.47,7.24,10.47Z"/>
    <path class="cls-1" d="m796.71,139.05h2.72v6.31h.11c.76-2.48,2.23-6.91,8.21-6.91,4.95,0,6.09,3.99,6.09,6.26h.11c.71-2.27,2.72-6.26,7.35-6.26,2.88,0,6.75.81,6.75,7.29v19h-2.72v-16.19c0-2.64,0-7.5-4.19-7.5s-7.4,6.64-7.4,13.38v10.31h-2.72v-16.19c0-2.64,0-7.5-3.37-7.5-4.68,0-8.21,6.85-8.21,13.87v9.82h-2.72v-25.69Z"/>
    <path class="cls-1" d="m847.8,139.05h2.72v4.75h.11c.76-2.16,2.39-5.34,7.45-5.34,3.97,0,8.92,2.11,8.92,13.17s-4.95,13.71-8.92,13.71c-5.06,0-6.8-3.18-7.45-5.34h-.11v16.3h-2.72v-37.24Zm9.9,23.69c3.97,0,6.04-3.99,6.04-11.17s-2.07-10.52-6.04-10.52c-4.84,0-7.07,6.15-7.07,10.63,0,3.13,1.09,11.06,7.07,11.06Z"/>
    <path class="cls-1" d="m897.2,161.12h-.11c-.98,1.4-3.32,4.21-8.05,4.21-5.12,0-6.58-3.99-6.58-6.86,0-8.26,11.53-8.2,14.74-8.26,0-1.35,0-4.53-.22-5.45-.65-3.08-3.32-3.72-5.39-3.72-4.08,0-4.95,2.1-5.39,4.15h-3.32c0-2.7,2.07-6.75,8.92-6.75,8,0,8.11,5.29,8.11,8.74v17.54h-2.72v-3.61Zm-2.72-8.31c-4.79,0-8.76,1.83-8.76,5.78,0,2.21,1.85,3.51,3.86,3.51,2.72,0,5.22-1.62,6.42-3.56.82-1.46,1.2-2.75,1.2-5.72h-2.72Z"/>
    <path class="cls-1" d="m919.67,139.05h2.72v6.31h.11c.82-2.48,2.34-6.91,8.6-6.91,1.41,0,6.75.81,6.75,7.29v19h-2.72v-16.19c0-2.64,0-7.5-4.57-7.5s-8.16,6.85-8.16,13.87v9.82h-2.72v-25.69Z"/>
    <path class="cls-1" d="m963.74,164.63l-10.06-25.58h2.99l8.54,21.43,7.56-21.43h2.99l-12.51,35.62h-2.99l3.48-10.04Z"/>
  </g>
  <g>
    <path class="cls-1" d="m57.99,13.63c-4.91-2.22-15.05-6.5-26.14-6.5s-19.17,6.18-19.17,15.84c0,25.03,52.29,21.86,52.29,56.56,0,21.86-18.06,30.58-38.5,30.58-11.09,0-22.66-2.53-25.35-3.17v-10.93c5.86,2.85,16.8,6.97,27.57,6.97,13.94,0,22.18-6.65,22.18-20.12C50.86,56.09,0,60.05,0,26.78,0,9.51,13.47,0,34.54,0c10.3,0,18.86,1.58,23.45,2.54v11.09Z"/>
    <path class="cls-1" d="m110.92,20.44c1.11-2.85,2.38-6.02,2.38-8.56,0-4.12-4.28-5.55-12.2-7.45V1.74h27.25l40.88,106.63h-15.37l-13.31-35.33h-39.93l-12.52,35.33h-9.98L110.92,20.44Zm-8.08,46.42h35.97l-17.91-48.32-18.06,48.32Z"/>
    <path class="cls-1" d="m192.52,20.44c0-12.68-1.9-13.15-15.84-16V1.74h34.7l31.37,91.1h.32L274.44,1.74h19.17v106.63h-13.78V10.14h-.32l-33.12,98.23h-12.36L201.08,10.14h-.32v98.23h-8.24V20.44Z"/>
    <path class="cls-1" d="m329.75,19.8c0-10.93-5.07-10.46-15.84-11.72v-2.69l29.63-3.64v48.32h46.43V1.74h13.79v106.63h-13.79v-52.13h-46.43v52.13h-13.78V19.8Z"/>
    <path class="cls-1" d="m457.93,20.44c1.11-2.85,2.38-6.02,2.38-8.56,0-4.12-4.28-5.55-12.2-7.45V1.74h27.25l40.88,106.63h-15.37l-13.31-35.33h-39.93l-12.52,35.33h-9.98l32.8-87.93Zm-8.08,46.42h35.97l-17.91-48.32-18.06,48.32Z"/>
    <path class="cls-1" d="m539.54,20.44c0-12.68-1.9-13.15-15.84-16V1.74h34.7l31.37,91.1h.32L621.46,1.74h19.17v106.63h-13.79V10.14h-.32l-33.12,98.23h-12.36l-32.96-98.23h-.32v98.23h-8.24V20.44Z"/>
    <path class="cls-1" d="m676.76,20.44c0-12.68-1.9-13.15-15.85-16V1.74h34.7l31.37,91.1h.32L758.68,1.74h19.17v106.63h-13.79V10.14h-.32l-33.12,98.23h-12.36l-32.96-98.23h-.32v98.23h-8.24V20.44Z"/>
    <path class="cls-1" d="m814.14,18.38c0-9.03-2.22-12.04-16-13.94V1.74h74.79l.79,19.33h-4.91c-1.58-8.24-1.43-13.15-14.58-13.15h-16.64c-9.03,0-9.67,1.9-9.67,10.46v31.21h20.12c13.15,0,14.26-5.7,15.53-13.15h3.64v32.8h-3.64c-1.58-9.19-2.06-13.47-15.53-13.47h-20.12v37.23c0,9.19,1.43,9.19,12.99,9.19h17.11c10.78,0,11.57-3.33,13.79-15.37h4.91l-1.11,21.55h-61.48V18.38Z"/>
    <path class="cls-1" d="m907,18.54c0-11.09-2.53-11.41-16-14.1V1.74h44.84c19.33,0,35.34,4.59,35.34,27.41,0,18.06-13.47,23.92-27.41,25.82l32.01,53.39h-15.53l-31.53-52.44h-7.92v52.44h-13.79V18.54Zm13.79,31.21h4.28c11.25,0,30.58,0,30.58-22.18,0-15.05-11.25-19.65-23.61-19.65-10.62,0-11.25,1.27-11.25,10.62v31.21Z"/>
  </g>
</svg>