<svg xmlns="http://www.w3.org/2000/svg" viewBox="0 0 16 16"><g fill="#fff" fill-rule="evenodd"><path fill-rule="nonzero" d="M13.38 3.8a1.2 1.2 0 1 1-2.4 0 1.2 1.2 0 0 1 2.4 0"></path><path d="M8 12a4 4 0 1 0 0-8 4 4 0 0 0 0 8m0-1.6a2.4 2.4 0 1 0 0-4.8 2.4 2.4 0 0 0 0 4.8"></path><path d="M0 7.68c0-2.688 0-4.032.523-5.06A4.8 4.8 0 0 1 2.621.524C3.648 0 4.99 0 7.68 0h.64c2.688 0 4.032 0 5.06.523a4.8 4.8 0 0 1 2.097 2.098C16 3.648 16 4.99 16 7.68v.64c0 2.688 0 4.032-.523 5.06a4.8 4.8 0 0 1-2.098 2.097C12.352 16 11.01 16 8.32 16h-.64c-2.688 0-4.032 0-5.06-.523a4.8 4.8 0 0 1-2.097-2.098C0 12.352 0 11.01 0 8.32zM7.68 1.6h.64c1.37 0 2.302.001 3.022.06.702.057 1.06.161 1.31.289a3.2 3.2 0 0 1 1.4 1.398c.127.25.23.61.288 1.31.059.72.06 1.652.06 3.023v.64c0 1.37-.001 2.302-.06 3.022-.057.702-.161 1.06-.289 1.31a3.2 3.2 0 0 1-1.398 1.4c-.25.127-.61.23-1.31.288-.72.059-1.652.06-3.023.06h-.64c-1.37 0-2.302-.001-3.022-.06-.702-.057-1.06-.161-1.31-.289a3.2 3.2 0 0 1-1.4-1.398c-.127-.25-.23-.61-.288-1.31-.059-.72-.06-1.652-.06-3.023v-.64c0-1.37.001-2.302.06-3.022.057-.702.161-1.06.289-1.31a3.2 3.2 0 0 1 1.398-1.4c.25-.127.61-.23 1.31-.288.72-.059 1.652-.06 3.023-.06"></path></g></svg>