<?xml version="1.0" encoding="UTF-8" standalone="no"?>
<svg
   xmlns:svg="http://www.w3.org/2000/svg"
   xmlns="http://www.w3.org/2000/svg"
   xmlns:inkscape="http://www.inkscape.org/namespaces/inkscape"
   version="1.0"
   width="400"
   height="115"
   id="svg2"
   xml:space="preserve"
   style="enable-background:new"><defs
     id="defs6"></defs><g
     transform="matrix(1.25,0,0,-1.25,-277.36133,814.24159)"
     id="g12"><path
       d="m 292.19566,628.6375 c 0,0 0,0 0,0 0,0 0,0 0,0 z"
       id="path30"
       style="fill:#fbbc9a;fill-opacity:1;fill-rule:nonzero;stroke:none" /><path
       d="m 355.71695,646.54779 c -9.11776,3.15955 -17.8881,2.27074 -24.82872,-2.51685 -7.90953,-5.411 -12.43367,-15.24677 -12.43367,-26.9547 0,-0.13993 -0.53656,-21.42405 -1.15418,-36.78853 -0.27601,-6.81807 -3.35837,-10.18607 -6.10296,-10.47367 -2.82372,-0.2895 -6.46196,2.66354 -8.17396,9.81067 0,0 -6.4658,26.63045 -6.4658,26.63045 -2.68476,11.01407 -4.03196,16.55731 -5.12247,21.79558 -2.72528,13.17385 -11.09417,18.8464 -18.1699,18.59644 -6.89235,-0.22774 -15.73604,-6.28536 -17.94792,-22.55024 0,0 -2.33156,-17.68447 -2.33156,-17.68447 -0.91292,-7.04098 -1.63864,-12.59579 -3.01095,-22.00114 -0.78167,-5.29424 -2.9762,-9.17567 -6.51213,-11.49562 -3.67682,-2.43 -8.76261,-3.05728 -14.39462,-1.82972 -0.46903,0.12352 -1.5576,-0.20654 -1.83167,-1.24684 -0.26827,-1.02683 -0.80677,-3.09782 -1.10594,-4.16516 -0.30687,-1.05576 0.51534,-1.63671 0.94382,-1.76217 7.77828,-1.78725 15.01034,-0.80292 20.47056,2.79477 5.31162,3.47997 8.70087,9.23357 9.77399,16.61521 1.41284,9.47483 2.12119,15.06534 3.02638,22.143 0,0 2.33156,17.63429 2.33156,17.63429 1.5904,11.67223 6.8364,15.98985 10.84326,16.13556 3.96635,0.14389 8.77999,-3.73182 10.63675,-12.68069 1.11366,-5.40042 2.47632,-10.96488 5.17264,-22.05711 0,0 6.48126,-26.59765 6.48126,-26.59765 2.9376,-12.3217 10.52093,-16.02941 16.10469,-15.4639 6.04698,0.58481 12.36224,6.23806 12.82355,17.55032 0.60604,15.4398 1.1619,36.78854 1.1619,37.01824 0,9.31172 3.33327,16.90375 9.20076,20.91931 4.80786,3.30142 11.08258,3.93255 17.74334,1.75638 0.47673,-0.15732 1.53249,-0.3368 1.84131,0.46806 0.28952,0.77781 1.2314,3.12866 1.64637,4.30602 0.37637,1.11271 -0.20651,1.96581 -0.61569,2.09416 0,0 0,0 0,0 z"
       id="path32"
       style="fill:#ef5939;fill-opacity:1;fill-rule:nonzero;stroke:none" /><path
       d="m 355.71695,646.54779 c -9.11776,3.15955 -17.8881,2.27074 -24.82872,-2.51685 -7.90953,-5.411 -12.43367,-15.24677 -12.43367,-26.9547 0,-0.13993 -0.53656,-21.42405 -1.15418,-36.78853 -0.27601,-6.81807 -3.35837,-10.18607 -6.10296,-10.47367 -2.82372,-0.2895 -6.46196,2.66354 -8.17396,9.81067 0,0 -6.4658,26.63045 -6.4658,26.63045 -2.68476,11.01407 -4.03196,16.55731 -5.12247,21.79558 -2.72528,13.17385 -11.09417,18.8464 -18.1699,18.59644 -6.89235,-0.22774 -15.73604,-6.28536 -17.94792,-22.55024 0,0 -2.33156,-17.68447 -2.33156,-17.68447 -0.91292,-7.04098 -1.63864,-12.59579 -3.01095,-22.00114 -0.78167,-5.29424 -2.9762,-9.17567 -6.51213,-11.49562 -3.67682,-2.43 -8.76261,-3.05728 -14.39462,-1.82972 -0.46903,0.12352 -1.5576,-0.20654 -1.83167,-1.24684 -0.26827,-1.02683 -0.80677,-3.09782 -1.10594,-4.16516 -0.30687,-1.05576 0.51534,-1.63671 0.94382,-1.76217 7.77828,-1.78725 15.01034,-0.80292 20.47056,2.79477 5.31162,3.47997 8.70087,9.23357 9.77399,16.61521 1.41284,9.47483 2.12119,15.06534 3.02638,22.143 0,0 2.33156,17.63429 2.33156,17.63429 1.5904,11.67223 6.8364,15.98985 10.84326,16.13556 3.96635,0.14389 8.77999,-3.73182 10.63675,-12.68069 1.11366,-5.40042 2.47632,-10.96488 5.17264,-22.05711 0,0 6.48126,-26.59765 6.48126,-26.59765 2.9376,-12.3217 10.52093,-16.02941 16.10469,-15.4639 6.04698,0.58481 12.36224,6.23806 12.82355,17.55032 0.60604,15.4398 1.1619,36.78854 1.1619,37.01824 0,9.31172 3.33327,16.90375 9.20076,20.91931 4.80786,3.30142 11.08258,3.93255 17.74334,1.75638 0.47673,-0.15732 1.53249,-0.3368 1.84131,0.46806 0.28952,0.77781 1.2314,3.12866 1.64637,4.30602 0.37637,1.11271 -0.20651,1.96581 -0.61569,2.09416 0,0 0,0 0,0 z"
       id="path34"
       style="fill:none;stroke:#ef5939;stroke-width:0.34883726;stroke-linecap:butt;stroke-linejoin:miter;stroke-miterlimit:4;stroke-opacity:1;stroke-dasharray:none" /><path
       d="m 366.46562,585.69486 c 0,4.11687 -3.30045,7.5013 -7.50419,7.5013 -4.13233,0 -7.51386,-3.38443 -7.51386,-7.5013 0,0 0,-2.49369 0,-2.49369 0,0 15.01805,0 15.01805,0 0,0 0,2.49369 0,2.49369 0,0 0,0 0,0 z m 2.54194,-22.5377 c 0,0 -12.53208,0 -12.53208,0 -3.01096,0 -5.11668,0.75466 -7.20505,2.93759 -2.03432,2.08838 -2.7832,4.12268 -2.7832,7.05256 0,0 0,10.05386 0,10.05386 0,0 0.0714,2.49369 0.0714,2.49369 0.21616,6.8277 5.56831,12.45199 12.40277,12.53497 6.89814,0 12.5398,-5.65227 12.5398,-12.53497 0,0 0,-2.49369 0,-2.49369 0,0 0,-2.55738 0,-2.55738 0,-0.66972 -0.14468,-1.18508 -0.60605,-1.6425 -0.52303,-0.58481 -1.12909,-0.82802 -1.88762,-0.82802 0,0 -17.55999,0 -17.55999,0 0,0 0,-5.02596 0,-5.02596 0,-1.50933 0.38023,-2.48596 1.43986,-3.5282 1.03066,-1.04418 2.09607,-1.43598 3.58804,-1.43598 0,0 12.53209,0 12.53209,0 1.36459,0 2.49367,-1.17737 2.49367,-2.53228 0,-1.35687 -1.12908,-2.49369 -2.49367,-2.49369 0,0 0,0 0,0 z"
       id="path36"
       style="fill:#292021;fill-opacity:1;fill-rule:nonzero;stroke:none" /><path
       d="m 408.98268,563.15716 c -0.91101,0 -1.66181,0.24126 -2.11538,1.05768 0,0 -6.69742,11.48985 -6.69742,11.48985 0,0 -6.6646,-11.48985 -6.6646,-11.48985 -0.46131,-0.81642 -1.20246,-1.05768 -2.11347,-1.05768 -2.46858,0 -2.98778,2.40876 -2.17135,3.8486 0,0 8.0369,13.63803 8.0369,13.63803 0,0 -7.97128,13.67857 -7.97128,13.67857 -0.82415,1.49969 -0.29338,3.90747 2.10573,3.90747 0.98436,0 1.73516,-0.43813 2.19452,-1.19666 0,0 6.58355,-11.33831 6.58355,-11.33831 0,0 6.54494,11.33831 6.54494,11.33831 0.52498,0.82512 1.20437,1.19666 2.26786,1.19666 2.53228,0 2.83145,-2.40778 2.01695,-3.90747 0,0 -7.95392,-13.67857 -7.95392,-13.67857 0,0 8.0369,-13.63803 8.0369,-13.63803 0.89364,-1.43984 0.36865,-3.8486 -2.09993,-3.8486 0,0 0,0 0,0 z"
       id="path38"
       style="fill:#292021;fill-opacity:1;fill-rule:nonzero;stroke:none" /><path
       d="m 448.09601,578.17136 c 0,0 -12.53403,0 -12.53403,0 -2.17908,0 -2.46857,-2.82567 -2.46857,-5.02405 0,-2.098 0.28949,-4.96418 2.46857,-4.96418 0,0 12.53403,0 12.53403,0 0,0 0,9.98823 0,9.98823 0,0 0,0 0,0 z m 4.45273,-14.17462 c -0.54814,-0.59832 -1.14454,-0.83958 -1.95905,-0.83958 0,0 -15.02771,0 -15.02771,0 -4.87348,0 -7.51962,5.1244 -7.51962,9.99015 0,4.96999 2.64614,10.05386 7.51962,10.05386 0,0 12.53403,0 12.53403,0 0,0 0,4.96324 0,4.96324 0,1.51705 -0.44585,2.5535 -1.49389,3.59865 -1.0577,1.05673 -2.03239,1.42828 -3.53401,1.42828 0,0 -9.9747,0 -9.9747,0 -1.35494,0 -2.54967,1.13102 -2.54967,2.48595 0,1.35588 1.19473,2.55254 2.54967,2.55254 0,0 9.9747,0 9.9747,0 2.92796,0 5.0279,-0.74597 7.13942,-2.85171 2.10959,-2.10282 2.85075,-4.19603 2.85075,-7.21371 0,0 0,-22.51356 0,-22.51356 0,-0.61378 -0.13697,-1.13877 -0.50954,-1.65411 0,0 0,0 0,0 z"
       id="path40"
       style="fill:#292021;fill-opacity:1;fill-rule:nonzero;stroke:none" /><path
       d="m 494.35842,563.15716 c -1.34915,0 -2.56703,1.13682 -2.56703,2.49369 0,0 0,22.51356 0,22.51356 0,1.51705 -0.36287,2.48596 -1.41285,3.54074 -1.0654,1.01813 -2.04975,1.48619 -3.53398,1.48619 0,0 -7.51965,0 -7.51965,0 0,0 0,-27.54049 0,-27.54049 0,-1.35687 -1.18701,-2.49369 -2.56703,-2.49369 -1.34141,0 -2.46085,1.13682 -2.46085,2.49369 0,0 0,30.02644 0,30.02644 0,0.75274 0.24127,1.20246 0.66781,1.7255 0.52498,0.52981 1.05768,0.82704 1.79304,0.82704 0,0 10.08668,0 10.08668,0 3.00128,0 4.94683,-0.74597 7.1259,-2.85171 2.18679,-2.18678 2.87197,-4.19603 2.87197,-7.21371 0,0 0,-22.51356 0,-22.51356 0,-1.35687 -1.14648,-2.49369 -2.48401,-2.49369 0,0 0,0 0,0 z"
       id="path42"
       style="fill:#292021;fill-opacity:1;fill-rule:nonzero;stroke:none" /><path
       d="m 527.82237,563.15716 c -3.3989,0.081 -4.72103,0.3918 -8.49049,1.58074 -0.97663,0.29917 -1.48616,1.13875 -1.48616,2.17907 0,1.5904 1.80076,2.77549 3.14025,2.47825 1.80078,-0.38603 3.35643,-1.27194 6.9136,-1.21209 2.3991,0 4.94103,1.34141 4.94103,3.7656 0,0.74309 0,0.89943 -0.89363,1.8857 0,0 -11.57476,9.8261 -11.57476,9.8261 -1.78342,1.8085 -2.52649,3.31686 -2.52649,5.78738 0,6.98212 6.14346,8.78192 10.05385,8.78192 2.75423,0 5.09351,-0.82704 7.05449,-1.50065 1.27578,-0.38311 1.62319,-1.20919 1.62319,-2.26303 0,-1.64636 -1.17156,-2.91348 -3.20395,-2.40392 -2.04203,0.60508 -3.67876,1.12911 -5.47373,1.12911 -2.47632,0 -5.04141,-1.42828 -5.04141,-3.74343 0,-0.6871 0.29723,-1.12138 0.66975,-1.72936 0,0 12.02253,-10.20536 12.02253,-10.20536 1.94747,-2.10958 2.17137,-3.24835 2.32578,-5.56446 0.30687,-5.24214 -4.93911,-8.86491 -10.05385,-8.79157 0,0 0,0 0,0 z"
       id="path44"
       style="fill:#292021;fill-opacity:1;fill-rule:nonzero;stroke:none" /></g></svg>