<?xml version="1.0" encoding="UTF-8" standalone="no"?>
<svg
   xmlns:dc="http://purl.org/dc/elements/1.1/"
   xmlns:cc="http://creativecommons.org/ns#"
   xmlns:rdf="http://www.w3.org/1999/02/22-rdf-syntax-ns#"
   xmlns:svg="http://www.w3.org/2000/svg"
   xmlns="http://www.w3.org/2000/svg"
   xmlns:sodipodi="http://sodipodi.sourceforge.net/DTD/sodipodi-0.dtd"
   xmlns:inkscape="http://www.inkscape.org/namespaces/inkscape"
   viewBox="0 0 388.32999 335.07999"
   height="335.07999"
   width="388.32999"
   version="1.1"
   id="svg12"
   sodipodi:docname="Gebhardt Intralogistics Group Logo.svg"
   inkscape:version="1.0.2 (e86c870879, 2021-01-15, custom)">
  <metadata
     id="metadata18">
    <rdf:RDF>
      <cc:Work
         rdf:about="">
        <dc:format>image/svg+xml</dc:format>
        <dc:type
           rdf:resource="http://purl.org/dc/dcmitype/StillImage" />
        <dc:title></dc:title>
      </cc:Work>
    </rdf:RDF>
  </metadata>
  <defs
     id="defs16" />
  <sodipodi:namedview
     pagecolor="#ffffff"
     bordercolor="#382e2eff"
     borderopacity="1"
     objecttolerance="10"
     gridtolerance="10"
     guidetolerance="10"
     inkscape:pageopacity="0"
     inkscape:pageshadow="2"
     inkscape:window-width="1680"
     inkscape:window-height="988"
     id="namedview14"
     showgrid="false"
     fit-margin-top="0"
     fit-margin-left="0"
     fit-margin-right="0"
     fit-margin-bottom="0"
     inkscape:zoom="1.8375"
     inkscape:cx="194.23"
     inkscape:cy="170.98"
     inkscape:window-x="-8"
     inkscape:window-y="-8"
     inkscape:window-maximized="1"
     inkscape:current-layer="svg12" />
  <path
     d="M 0,167.58 C 0,74.98 73.74,0 164.63,0 c 40.2,0 77,14.63 105.9,39.13 v 80.25 C 253.13,98.98 226.53,55 164.63,55 c -61,0.13 -110.55,50.38 -110.55,112.58 0,62.2 49.55,112.5 110.55,112.5 25.6,0 53.5,-7.8 77.6,-32.1 l 77.4,-78.7 -30.8,-31.2 h 99.5 v 100 l -30.1,-30.2 -73.5,75.2 c 0,0 -17.5,18.7 -39.1,30.6 -28.9,15.8 -52.4,21.4 -81,21.4 C 73.74,335.08 0,260.08 0,167.58"
     fill="#ed1c24"
     id="path2" />
  <path
     d="m 212.73,136.08 h 7.4 v 4 l 6.7,-7.3 v 11.1 l -6.7,7.4 v 58.5 h -7.4 v -73.7 m 50.1,-15.1 h 7.4 v 15.1 h 7.5 v 7.5 h -7.5 v 66.2 h -7.4 v -66.2 h -7.6 v -7.5 h 7.6 v -15.1"
     fill="#231f20"
     id="path4" />
  <path
     d="m 184.73,209.78 h -1.1 v -35.5 l 15.1,-16.9 v -13.8 h -7.7 v 16.4 h -7.4 v -24.1 h 7.4 v 0.2 h 15.2 v 73.7 z m 6.3,-7.4 h 7.7 v -33.9 l -7.7,8.8 v 25.1 m 47,0 h 8 v -58.8 h -8 z m -7.3,7.4 -0.2,-73.7 h 15.5 v -15.1 h 7.3 v 88.8 h -22.6"
     fill="#231f20"
     fill-rule="evenodd"
     id="path6" />
  <path
     d="m 176.53,136.08 v 73.7 h -7.3 v -66.2 h -7.9 v 66.2 h -7.2 v -88.8 h 7.2 v 15.1 h 15.2"
     fill="#231f20"
     id="path8" />
  <path
     d="m 132.23,136.08 h 14.8 v 73.7 h -22.3 v -88.8 h 7.5 z m 7.4,7.5 h -7.4 v 58.8 h 7.4 v -58.8 m -37.2,58.8 h 7.3 v -21.6 h 7.5 v 29 h -22.2 v -73.7 h 22.2 v 32.8 h -14.8 z m 7.3,-58.8 h -7.3 v 17.7 h 7.3 v -17.7 m -44.01,66.2 v -7.4 h 14.46 v -12.5 h -16.6 l 0.02,-53.8 h 23.98 v 73.7 z m 14.46,-66.2 h -9.17 v 38.9 h 9.17 v -38.9 m 275.05,83.8 h 2.5 c 1.4,0 2.9,0.4 2.9,2 0,1.9 -1.3,2.2 -2.9,2.2 h -2.5 z m -2.6,12.5 h 2.6 v -6.1 h 1.8 l 3.6,6.1 h 2.9 l -4,-6.4 c 2.5,-0.1 3.7,-1.5 3.7,-3.9 0,-3 -1.9,-4.2 -5.1,-4.2 h -5.5 z m 4.9,3.1 c -5.3,0 -9.5,-4.2 -9.5,-10.2 0,-6.2 4.2,-10.4 9.5,-10.4 5.3,0 9.6,4.2 9.6,10.4 0,6 -4.3,10.2 -9.6,10.2 z m 0,2.6 c 7,0 12.6,-5.7 12.6,-12.8 0,-7.3 -5.6,-13 -12.6,-13 -6.9,0 -12.7,5.7 -12.7,13 0,7.1 5.8,12.8 12.7,12.8"
     fill="#231f20"
     fill-rule="evenodd"
     id="path10" />
</svg>
