<?xml version="1.0" encoding="UTF-8"?>
<svg xmlns="http://www.w3.org/2000/svg" xmlns:xlink="http://www.w3.org/1999/xlink" version="1.1" id="Ebene_1" x="0px" y="0px" viewBox="0 0 137 60" style="enable-background:new 0 0 137 60;" xml:space="preserve">
<style type="text/css">
	.st0{fill:#161615;}
	.st1{clip-path:url(#SVGID_00000039116766735700294020000014376209281391515308_);fill:#FFD002;}
	.st2{clip-path:url(#SVGID_00000039116766735700294020000014376209281391515308_);fill:#9FBB1C;}
	.st3{fill:#0C7EC2;}
</style>
<g>
	<path class="st0" d="M30.3,8.96c0.96,0,1.77,0.8,1.77,1.77c0,0.96-0.8,1.77-1.77,1.77c-0.96,0-1.77-0.8-1.77-1.77   C28.54,9.76,29.34,8.96,30.3,8.96L30.3,8.96z M24.01,8.96c0.96,0,1.77,0.8,1.77,1.77c0,0.96-0.8,1.77-1.77,1.77   c-0.96,0-1.77-0.8-1.77-1.77C22.24,9.76,23.04,8.96,24.01,8.96L24.01,8.96z M17.78,24.8V12.5h3.05v11.98c0,2.86,0.19,4.66,0.9,6.01   c0.8,1.51,2.47,2.79,5.52,2.79c2.83,0,4.56-1.09,5.46-2.79c0.74-1.38,0.87-3.24,0.87-5.88V12.5h2.95v11.95   c0,3.37-0.19,5.97-1.54,8.03c-1.48,2.25-4.27,3.63-7.87,3.63c-3.63,0-6.36-1.41-7.8-3.63C17.97,30.39,17.78,27.69,17.78,24.8   L17.78,24.8z"></path>
	<path class="st0" d="M45.72,32.99c2.63,0,4.11-0.26,5.17-1c0.74-0.51,1.51-1.48,1.51-3.05c0-2.57-2.02-3.95-5.49-3.95h-4.5v8H45.72   L45.72,32.99z M47,22.65c2.34,0,4.46-1.09,4.46-3.63c0-1.45-0.67-2.38-1.64-2.96c-1.09-0.64-2.34-0.8-4.66-0.8h-2.76v7.39H47   L47,22.65z M39.36,12.5h6.23c2.83,0,4.63,0.26,6.2,1.22c1.77,1.06,2.73,2.67,2.73,4.75c0,2.67-1.61,4.24-3.53,4.91v0.06   c2.73,0.64,4.46,2.44,4.46,5.43c0,2.22-0.96,4.14-2.67,5.33c-1.64,1.16-3.89,1.54-7.26,1.54h-6.17V12.5L39.36,12.5z"></path>
	<polygon class="st0" points="55.96,35.75 55.93,35.69 69.1,15.32 69.07,15.26 56.77,15.26 56.77,12.5 74.43,12.5 74.46,12.56    61.3,32.92 61.33,32.99 74.21,32.99 74.21,35.75 55.96,35.75  "></polygon>
	<path class="st0" d="M85.09,33.28c5.08,0,8.77-4.05,8.77-9.15c0-5.11-3.69-9.15-8.77-9.15c-5.07,0-8.77,4.05-8.77,9.15   C76.33,29.23,80.02,33.28,85.09,33.28L85.09,33.28z M85.09,12.14c6.75,0,11.82,5.24,11.82,11.98c0,6.75-5.07,11.98-11.82,11.98   c-6.74,0-11.82-5.24-11.82-11.98C73.28,17.38,78.35,12.14,85.09,12.14L85.09,12.14z"></path>
	<g>
		<defs>
			<rect id="SVGID_1_" x="17.78" y="3.84" width="101.45" height="52.32"></rect>
		</defs>
		<clipPath id="SVGID_00000031192316049252543870000016484872423521228418_">
			<use xlink:href="#SVGID_1_" style="overflow:visible;"></use>
		</clipPath>
		<path style="clip-path:url(#SVGID_00000031192316049252543870000016484872423521228418_);fill:#FFD002;" d="M88.76,24.97    l17.99-13.79c0,0-2.32,9.72-9,19.48L88.76,24.97L88.76,24.97z"></path>
		<path style="clip-path:url(#SVGID_00000031192316049252543870000016484872423521228418_);fill:#9FBB1C;" d="M94.07,35.88    c0,0,9.42-6.29,14.02-25.56l8.01-6.48l0.49,11.7C116.59,15.54,112.17,24.59,94.07,35.88L94.07,35.88z"></path>
	</g>
	<path class="st3" d="M101.14,32.58l18.09,10.53l-2.2-25.54C117.02,17.57,111.52,26.17,101.14,32.58L101.14,32.58z"></path>
	<path class="st0" d="M19.95,41.53c0.13-0.04,0.4-0.04,0.53,0v0.49c-0.13,0.04-0.4,0.04-0.53,0V41.53L19.95,41.53z M18.98,41.53   c0.13-0.04,0.4-0.04,0.53,0v0.49c-0.13,0.04-0.4,0.04-0.53,0V41.53L18.98,41.53z M18.22,45.75c-0.02-0.2-0.02-0.53-0.02-0.84v-2.39   h0.55v2.92c0,0.94,0.41,1.2,1.02,1.2c0.61,0,0.96-0.35,0.96-1.2v-2.92h0.55v2.39c0,0.31-0.01,0.64-0.02,0.84   c-0.08,0.83-0.61,1.35-1.5,1.35C18.81,47.1,18.3,46.65,18.22,45.75L18.22,45.75z"></path>
	<path class="st0" d="M24.36,45.44c0-0.89-0.33-1.24-1.04-1.24c-0.2,0-0.35,0.01-0.52,0.04v2.38c0.27,0.05,0.42,0.06,0.6,0.06   C24.04,46.68,24.36,46.27,24.36,45.44L24.36,45.44z M24.92,45.33c0,1.12-0.5,1.77-1.57,1.77c-0.43,0-0.72-0.05-1.08-0.16v-4.48   l0.53-0.06v1.41c0.2-0.03,0.41-0.04,0.66-0.04C24.33,43.77,24.92,44.17,24.92,45.33L24.92,45.33z"></path>
	<path class="st0" d="M26.06,45.17h1.48c-0.03-0.74-0.18-0.97-0.67-0.97C26.38,44.2,26.1,44.42,26.06,45.17L26.06,45.17z    M27.84,46.5l0.13,0.38c-0.34,0.16-0.69,0.22-1.04,0.22c-0.98,0-1.4-0.49-1.4-1.6c0-1.24,0.54-1.73,1.39-1.73   c0.73,0,1.09,0.43,1.14,1.25c0.01,0.2,0.01,0.35,0.01,0.55h-2c0.03,0.82,0.32,1.09,0.89,1.09C27.31,46.66,27.57,46.61,27.84,46.5   L27.84,46.5z"></path>
	<path class="st0" d="M28.93,43.89l0.53-0.06v0.41c0.15-0.35,0.42-0.47,0.68-0.47c0.17,0,0.27,0.04,0.35,0.1l-0.04,0.45   c-0.12-0.03-0.21-0.04-0.36-0.04c-0.29,0-0.49,0.11-0.63,0.38v2.36h-0.53V43.89L28.93,43.89z"></path>
	<path class="st0" d="M33.26,45.44c0-0.89-0.33-1.24-1.04-1.24c-0.2,0-0.35,0.01-0.52,0.04v2.38c0.27,0.05,0.42,0.06,0.6,0.06   C32.93,46.68,33.26,46.27,33.26,45.44L33.26,45.44z M33.82,45.33c0,1.12-0.5,1.77-1.57,1.77c-0.43,0-0.72-0.05-1.08-0.16v-4.48   l0.53-0.06v1.41c0.2-0.03,0.41-0.04,0.66-0.04C33.23,43.77,33.82,44.17,33.82,45.33L33.82,45.33z"></path>
	<path class="st0" d="M34.96,45.17h1.48c-0.03-0.74-0.18-0.97-0.67-0.97C35.28,44.2,34.99,44.42,34.96,45.17L34.96,45.17z    M36.73,46.5l0.13,0.38c-0.34,0.16-0.69,0.22-1.04,0.22c-0.98,0-1.4-0.49-1.4-1.6c0-1.24,0.54-1.73,1.39-1.73   c0.73,0,1.09,0.43,1.14,1.25c0.01,0.2,0.01,0.35,0.01,0.55h-2.01c0.03,0.82,0.32,1.09,0.89,1.09   C36.21,46.66,36.46,46.61,36.73,46.5L36.73,46.5z"></path>
	<path class="st0" d="M39.47,46.94c-0.19,0.1-0.41,0.16-0.7,0.16c-0.5,0-0.73-0.28-0.76-0.64C38,46.29,38,46.13,38,45.96v-1.7h-0.46   v-0.4H38v-0.7l0.53-0.08v0.79h0.91l-0.05,0.4h-0.86v1.73c0,0.52,0.1,0.67,0.47,0.67c0.1,0,0.21-0.02,0.36-0.07L39.47,46.94   L39.47,46.94z"></path>
	<path class="st0" d="M40.21,43.89l0.53-0.06v0.41c0.15-0.35,0.42-0.47,0.68-0.47c0.17,0,0.27,0.04,0.35,0.1l-0.04,0.45   c-0.12-0.03-0.21-0.04-0.36-0.04c-0.29,0-0.49,0.11-0.63,0.38v2.36h-0.53V43.89L40.21,43.89z"></path>
	<path class="st0" d="M42.45,43.86l0.53-0.06v3.22h-0.53V43.86L42.45,43.86z M42.45,42.66c0.13-0.04,0.4-0.04,0.53,0v0.49   c-0.13,0.04-0.4,0.04-0.53,0V42.66L42.45,42.66z"></path>
	<path class="st0" d="M44.36,45.17h1.48c-0.03-0.74-0.18-0.97-0.67-0.97C44.68,44.2,44.4,44.42,44.36,45.17L44.36,45.17z    M46.13,46.5l0.13,0.38c-0.34,0.16-0.69,0.22-1.04,0.22c-0.98,0-1.4-0.49-1.4-1.6c0-1.24,0.54-1.73,1.39-1.73   c0.73,0,1.09,0.43,1.14,1.25c0.01,0.2,0.01,0.35,0.01,0.55h-2c0.03,0.82,0.32,1.09,0.89,1.09C45.61,46.66,45.87,46.61,46.13,46.5   L46.13,46.5z"></path>
	<path class="st0" d="M49.32,45.44c0-0.89-0.33-1.24-1.04-1.24c-0.2,0-0.35,0.01-0.52,0.04v2.38c0.27,0.05,0.42,0.06,0.6,0.06   C48.99,46.68,49.32,46.27,49.32,45.44L49.32,45.44z M49.87,45.33c0,1.12-0.5,1.77-1.57,1.77c-0.43,0-0.72-0.05-1.08-0.16v-4.48   l0.53-0.06v1.41c0.2-0.03,0.41-0.04,0.66-0.04C49.29,43.77,49.87,44.17,49.87,45.33L49.87,45.33z"></path>
	<polygon class="st0" points="50.71,42.46 51.24,42.4 51.24,47.02 50.71,47.02 50.71,42.46  "></polygon>
	<path class="st0" d="M52.31,43.86l0.53-0.06v3.22h-0.53V43.86L52.31,43.86z M52.31,42.66c0.13-0.04,0.4-0.04,0.53,0v0.49   c-0.13,0.04-0.4,0.04-0.53,0V42.66L52.31,42.66z"></path>
	<path class="st0" d="M53.67,45.49c0-1.2,0.55-1.72,1.57-1.72c0.31,0,0.61,0.07,0.81,0.18l-0.09,0.37   c-0.25-0.08-0.51-0.12-0.76-0.12c-0.63,0-0.97,0.27-0.97,1.24c0,0.9,0.29,1.24,0.9,1.24c0.25,0,0.46-0.04,0.79-0.13l0.1,0.37   c-0.3,0.13-0.6,0.19-1,0.19C54.18,47.1,53.67,46.66,53.67,45.49L53.67,45.49z"></path>
	<path class="st0" d="M59.32,45.13v1.88h-0.53v-1.94c0-0.64-0.22-0.87-0.72-0.87c-0.3,0-0.55,0.12-0.76,0.35v2.47h-0.53v-4.56   l0.53-0.06v1.71c0.27-0.22,0.61-0.34,0.97-0.34c0.59,0,0.97,0.21,1.03,0.87C59.32,44.78,59.32,44.93,59.32,45.13L59.32,45.13z"></path>
	<path class="st0" d="M60.61,45.17h1.48c-0.03-0.74-0.18-0.97-0.67-0.97C60.94,44.2,60.65,44.42,60.61,45.17L60.61,45.17z    M62.39,46.5l0.13,0.38c-0.34,0.16-0.69,0.22-1.04,0.22c-0.98,0-1.4-0.49-1.4-1.6c0-1.24,0.54-1.73,1.39-1.73   c0.73,0,1.09,0.43,1.14,1.25c0.01,0.2,0.01,0.35,0.01,0.55h-2c0.03,0.82,0.32,1.09,0.89,1.09C61.87,46.66,62.12,46.61,62.39,46.5   L62.39,46.5z"></path>
	<path class="st0" d="M63.18,46.74l0.22-0.35c0.25,0.18,0.53,0.28,0.88,0.28c0.38,0,0.58-0.18,0.58-0.46c0-0.3-0.14-0.43-0.69-0.66   c-0.46-0.19-0.81-0.43-0.81-0.92c0-0.52,0.39-0.87,1.08-0.87c0.39,0,0.67,0.09,0.92,0.27l-0.18,0.38   c-0.21-0.14-0.44-0.22-0.77-0.22c-0.33,0-0.5,0.13-0.5,0.39c0,0.27,0.22,0.41,0.61,0.58c0.53,0.23,0.89,0.46,0.89,1   c0,0.62-0.52,0.94-1.17,0.94C63.8,47.1,63.45,46.99,63.18,46.74L63.18,46.74z"></path>
	<path class="st0" d="M69.92,45.73c0-0.49-0.22-0.78-0.8-0.78h-0.97v1.6h0.62C69.55,46.54,69.92,46.29,69.92,45.73L69.92,45.73z    M68.16,42.99v1.48h1.03c0.3,0,0.46-0.43,0.46-0.74c0-0.57-0.22-0.74-0.86-0.74H68.16L68.16,42.99z M70.52,45.75   c0,0.79-0.66,1.17-1.31,1.24c-0.19,0.02-0.42,0.03-0.67,0.03h-0.47h-0.45v-4.5h0.55h0.46c0.19,0,0.38,0,0.56,0.01   c0.69,0.05,1.07,0.43,1.07,1.06c0,0.41-0.24,0.84-0.63,1.05C70.18,44.75,70.52,45.16,70.52,45.75L70.52,45.75z"></path>
	<path class="st0" d="M71.39,43.86l0.53-0.06v3.22h-0.53V43.86L71.39,43.86z M71.39,42.66c0.13-0.04,0.4-0.04,0.53,0v0.49   c-0.13,0.04-0.4,0.04-0.53,0V42.66L71.39,42.66z"></path>
	<polygon class="st0" points="72.99,42.46 73.53,42.4 73.53,47.02 72.99,47.02 72.99,42.46  "></polygon>
	<path class="st0" d="M75.96,46.68c0.2,0,0.35-0.01,0.52-0.04v-2.38c-0.27-0.05-0.42-0.06-0.6-0.06c-0.63,0-0.95,0.41-0.95,1.24   C74.92,46.32,75.25,46.68,75.96,46.68L75.96,46.68z M77.01,42.4v4.55c-0.42,0.1-0.72,0.15-1.19,0.15c-0.87,0-1.46-0.4-1.46-1.56   c0-1.12,0.5-1.77,1.57-1.77c0.2,0,0.38,0.01,0.54,0.04v-1.35L77.01,42.4L77.01,42.4z"></path>
	<path class="st0" d="M80.5,43.83v3.19h-0.53v-0.27c-0.26,0.22-0.61,0.33-0.97,0.33c-0.59,0-0.98-0.27-1.03-0.93   c-0.01-0.14-0.01-0.29-0.01-0.49v-1.77l0.53-0.06v1.96c0,0.64,0.22,0.87,0.69,0.87c0.3,0,0.55-0.1,0.78-0.32v-2.45L80.5,43.83   L80.5,43.83z"></path>
	<path class="st0" d="M84.11,45.13v1.88h-0.53v-1.94c0-0.64-0.22-0.87-0.72-0.87c-0.3,0-0.55,0.12-0.76,0.35v2.47h-0.53v-3.16   l0.53-0.06v0.32c0.27-0.22,0.61-0.34,0.97-0.34c0.59,0,0.98,0.21,1.03,0.87C84.11,44.78,84.11,44.93,84.11,45.13L84.11,45.13z"></path>
	<path class="st0" d="M86.12,45.48c0.33,0,0.67-0.19,0.67-0.66c0-0.46-0.33-0.64-0.66-0.64c-0.33,0-0.7,0.19-0.7,0.66   C85.43,45.3,85.79,45.48,86.12,45.48L86.12,45.48z M86.93,47.27c0-0.21-0.06-0.38-0.2-0.51c-0.18-0.06-0.38-0.08-0.54-0.08   c-0.57,0-0.92,0.19-0.92,0.65c0,0.4,0.3,0.6,0.82,0.6C86.66,47.93,86.93,47.64,86.93,47.27L86.93,47.27z M87.56,44.26h-0.39   c0.1,0.16,0.15,0.34,0.15,0.57c0,0.36-0.18,0.66-0.46,0.84c-0.08,0.1-0.12,0.21-0.12,0.3c0,0.13,0.07,0.25,0.22,0.36   c0.36,0.28,0.53,0.56,0.53,0.92c0,0.67-0.55,1.09-1.41,1.09c-0.79,0-1.32-0.29-1.32-0.97c0-0.73,0.6-1.06,1.22-1.06   c0.15,0,0.27,0.01,0.38,0.05c-0.05-0.07-0.07-0.15-0.07-0.24c0-0.08,0.02-0.18,0.09-0.27c-0.07,0.01-0.16,0.02-0.24,0.02   c-0.67,0-1.2-0.38-1.2-1.05c0-0.66,0.57-1.06,1.24-1.06c0.15,0,0.31,0.02,0.46,0.07h1L87.56,44.26L87.56,44.26z"></path>
	<path class="st0" d="M88.11,46.74l0.22-0.35c0.25,0.18,0.53,0.28,0.88,0.28c0.38,0,0.58-0.18,0.58-0.46c0-0.3-0.14-0.43-0.69-0.66   c-0.46-0.19-0.81-0.43-0.81-0.92c0-0.52,0.39-0.87,1.07-0.87c0.39,0,0.68,0.09,0.92,0.27l-0.18,0.38   c-0.21-0.14-0.44-0.22-0.77-0.22c-0.33,0-0.5,0.13-0.5,0.39c0,0.27,0.22,0.41,0.61,0.58c0.53,0.23,0.89,0.46,0.89,1   c0,0.62-0.52,0.94-1.17,0.94C88.72,47.1,88.37,46.99,88.11,46.74L88.11,46.74z"></path>
	<polygon class="st0" points="93.51,46.61 93.46,47.02 91.01,47.02 91.01,46.73 92.64,44.26 91.17,44.26 91.17,43.86 93.31,43.86    93.31,44.14 91.69,46.61 93.51,46.61  "></polygon>
	<path class="st0" d="M94.55,45.17h1.48c-0.03-0.74-0.18-0.97-0.67-0.97C94.88,44.2,94.59,44.42,94.55,45.17L94.55,45.17z    M96.33,46.5l0.13,0.38c-0.34,0.16-0.69,0.22-1.05,0.22c-0.98,0-1.4-0.49-1.4-1.6c0-1.24,0.54-1.73,1.39-1.73   c0.74,0,1.09,0.43,1.14,1.25c0.01,0.2,0.01,0.35,0.01,0.55h-2c0.03,0.82,0.32,1.09,0.89,1.09C95.8,46.66,96.06,46.61,96.33,46.5   L96.33,46.5z"></path>
	<path class="st0" d="M99.96,45.13v1.88h-0.53v-1.94c0-0.64-0.22-0.87-0.72-0.87c-0.3,0-0.55,0.12-0.76,0.35v2.47h-0.53v-3.16   l0.53-0.06v0.32c0.27-0.22,0.61-0.34,0.97-0.34c0.59,0,0.98,0.21,1.03,0.87C99.96,44.78,99.96,44.93,99.96,45.13L99.96,45.13z"></path>
	<path class="st0" d="M102.6,46.94c-0.19,0.1-0.41,0.16-0.7,0.16c-0.5,0-0.73-0.28-0.76-0.64c-0.01-0.16-0.01-0.33-0.01-0.5v-1.7   h-0.46v-0.4h0.46v-0.7l0.53-0.08v0.79h0.91l-0.05,0.4h-0.86v1.73c0,0.52,0.1,0.67,0.47,0.67c0.1,0,0.21-0.02,0.36-0.07L102.6,46.94   L102.6,46.94z"></path>
	<path class="st0" d="M103.33,43.89l0.53-0.06v0.41c0.15-0.35,0.42-0.47,0.68-0.47c0.17,0,0.27,0.04,0.35,0.1l-0.04,0.45   c-0.12-0.03-0.21-0.04-0.36-0.04c-0.29,0-0.49,0.11-0.63,0.38v2.36h-0.53V43.89L103.33,43.89z"></path>
	<path class="st0" d="M108,43.83v3.19h-0.54v-0.27c-0.26,0.22-0.61,0.33-0.97,0.33c-0.59,0-0.98-0.27-1.03-0.93   c-0.01-0.14-0.01-0.29-0.01-0.49v-1.77l0.53-0.06v1.96c0,0.64,0.22,0.87,0.69,0.87c0.3,0,0.55-0.1,0.78-0.32v-2.45L108,43.83   L108,43.83z"></path>
	<path class="st0" d="M113.5,45.13v1.88h-0.54v-1.94c0-0.64-0.22-0.87-0.72-0.87c-0.28,0-0.52,0.1-0.73,0.3l0.02,0.14   c0.01,0.14,0.01,0.29,0.01,0.49v1.88h-0.53v-1.94c0-0.64-0.22-0.87-0.72-0.87c-0.27,0-0.5,0.08-0.7,0.26v2.56h-0.53v-3.16   l0.53-0.06v0.27c0.26-0.19,0.57-0.3,0.91-0.3c0.42,0,0.74,0.1,0.9,0.41c0.29-0.26,0.65-0.41,1.05-0.41c0.59,0,0.97,0.21,1.03,0.87   C113.5,44.78,113.5,44.93,113.5,45.13L113.5,45.13z"></path>
	<path class="st0" d="M18.25,51.66l0.53-0.06v3.22h-0.53V51.66L18.25,51.66z M18.25,50.47c0.13-0.04,0.4-0.04,0.53,0v0.49   c-0.13,0.04-0.4,0.04-0.53,0V50.47L18.25,50.47z"></path>
	<path class="st0" d="M22.4,52.94v1.88h-0.53v-1.94c0-0.64-0.22-0.87-0.72-0.87c-0.3,0-0.55,0.12-0.76,0.35v2.47h-0.53v-3.16   l0.53-0.06v0.32c0.27-0.22,0.61-0.34,0.97-0.34c0.59,0,0.98,0.21,1.03,0.87C22.4,52.59,22.4,52.73,22.4,52.94L22.4,52.94z"></path>
	<path class="st0" d="M27.98,52.57c0-1.12-0.57-1.87-1.47-1.87c-0.9,0-1.47,0.75-1.47,1.87c0,1.12,0.57,1.87,1.47,1.87   C27.4,54.45,27.98,53.7,27.98,52.57L27.98,52.57z M28.57,52.57c0,1.51-0.94,2.33-2.07,2.33c-1.12,0-2.07-0.82-2.07-2.33   c0-1.51,0.94-2.33,2.07-2.33C27.63,50.24,28.57,51.06,28.57,52.57L28.57,52.57z"></path>
	<path class="st0" d="M29.06,54.55l0.22-0.35c0.25,0.18,0.53,0.28,0.88,0.28c0.38,0,0.58-0.18,0.58-0.46c0-0.3-0.14-0.43-0.69-0.66   c-0.46-0.19-0.81-0.43-0.81-0.92c0-0.52,0.39-0.87,1.08-0.87c0.39,0,0.67,0.09,0.92,0.27l-0.18,0.38C30.86,52.08,30.62,52,30.29,52   c-0.33,0-0.5,0.13-0.5,0.39c0,0.27,0.22,0.41,0.61,0.58c0.53,0.23,0.89,0.46,0.89,1c0,0.62-0.52,0.94-1.17,0.94   C29.67,54.91,29.33,54.79,29.06,54.55L29.06,54.55z"></path>
	<path class="st0" d="M33.81,54.74c-0.19,0.1-0.41,0.16-0.7,0.16c-0.5,0-0.73-0.28-0.76-0.64c-0.01-0.16-0.01-0.33-0.01-0.5v-1.7   h-0.46v-0.4h0.46v-0.7l0.53-0.08v0.79h0.91l-0.05,0.4h-0.86v1.73c0,0.52,0.1,0.67,0.47,0.67c0.1,0,0.21-0.02,0.36-0.07L33.81,54.74   L33.81,54.74z"></path>
	<path class="st0" d="M36.63,53.24c0-0.89-0.33-1.24-1.04-1.24c-0.2,0-0.35,0.01-0.52,0.04v2.38c0.27,0.05,0.42,0.06,0.6,0.06   C36.31,54.48,36.63,54.08,36.63,53.24L36.63,53.24z M37.19,53.14c0,1.12-0.5,1.77-1.57,1.77c-0.43,0-0.72-0.05-1.08-0.16v-4.48   l0.53-0.06v1.41c0.2-0.03,0.41-0.04,0.66-0.04C36.6,51.58,37.19,51.98,37.19,53.14L37.19,53.14z"></path>
	<path class="st0" d="M38.93,54.48c0.24,0,0.47-0.07,0.75-0.23V53.4c-0.17-0.03-0.35-0.04-0.61-0.04c-0.45,0-0.74,0.16-0.74,0.52   C38.33,54.29,38.54,54.48,38.93,54.48L38.93,54.48z M39.77,54.89l-0.08-0.32c-0.37,0.25-0.65,0.34-0.97,0.34   c-0.52,0-0.95-0.23-0.95-0.98c0-0.66,0.55-0.98,1.32-0.98c0.2,0,0.41,0.03,0.58,0.07v-0.33c0-0.41-0.2-0.68-0.74-0.68   c-0.22,0-0.51,0.06-0.78,0.2l-0.15-0.35c0.35-0.19,0.69-0.27,1.04-0.27c0.7,0,1.12,0.34,1.15,0.93c0.01,0.14,0.01,0.29,0.01,0.5V54   c0,0.32,0.01,0.49,0.08,0.82L39.77,54.89L39.77,54.89z"></path>
	<path class="st0" d="M43.86,51.66l-1.19,2.72c-0.47,1.09-0.83,1.52-1.49,1.77l-0.28-0.4c0.52-0.24,0.89-0.56,1.14-1.09l-1.22-3.01   h0.62l0.88,2.53l0.95-2.53H43.86L43.86,51.66z"></path>
	<path class="st0" d="M44.85,52.98h1.48C46.3,52.24,46.15,52,45.66,52C45.17,52,44.88,52.22,44.85,52.98L44.85,52.98z M46.62,54.31   l0.13,0.38c-0.34,0.16-0.69,0.22-1.04,0.22c-0.98,0-1.4-0.49-1.4-1.6c0-1.24,0.54-1.73,1.39-1.73c0.73,0,1.09,0.43,1.14,1.25   c0.01,0.2,0.01,0.35,0.01,0.55h-2c0.03,0.82,0.32,1.09,0.89,1.09C46.1,54.47,46.35,54.42,46.62,54.31L46.62,54.31z"></path>
	<path class="st0" d="M47.71,51.69l0.53-0.06v0.41c0.15-0.35,0.42-0.47,0.68-0.47c0.17,0,0.27,0.04,0.35,0.1l-0.04,0.45   c-0.12-0.03-0.21-0.04-0.36-0.04c-0.29,0-0.49,0.11-0.63,0.38v2.36h-0.53V51.69L47.71,51.69z"></path>
	<path class="st0" d="M52.5,52.94v1.88h-0.53v-1.94c0-0.64-0.22-0.87-0.72-0.87c-0.3,0-0.55,0.12-0.76,0.35v2.47h-0.53v-3.16   l0.53-0.06v0.32c0.27-0.22,0.61-0.34,0.97-0.34c0.59,0,0.98,0.21,1.03,0.87C52.5,52.59,52.5,52.73,52.5,52.94L52.5,52.94z"></path>
	<path class="st0" d="M55.84,53.29c0.33,0,0.67-0.19,0.67-0.66c0-0.46-0.33-0.64-0.66-0.64c-0.33,0-0.7,0.19-0.7,0.66   C55.16,53.1,55.51,53.29,55.84,53.29L55.84,53.29z M56.66,55.07c0-0.21-0.06-0.38-0.2-0.51c-0.18-0.06-0.38-0.08-0.54-0.08   c-0.57,0-0.92,0.19-0.92,0.65c0,0.4,0.3,0.6,0.82,0.6C56.38,55.73,56.66,55.44,56.66,55.07L56.66,55.07z M57.28,52.06h-0.4   c0.1,0.16,0.15,0.34,0.15,0.57c0,0.36-0.18,0.66-0.46,0.84c-0.09,0.1-0.12,0.21-0.12,0.3c0,0.13,0.07,0.25,0.22,0.36   c0.36,0.28,0.53,0.56,0.53,0.92c0,0.67-0.55,1.09-1.41,1.09c-0.79,0-1.32-0.29-1.32-0.97c0-0.73,0.6-1.06,1.21-1.06   c0.15,0,0.27,0.01,0.38,0.05c-0.05-0.07-0.07-0.15-0.07-0.24c0-0.08,0.02-0.18,0.08-0.27c-0.07,0.01-0.16,0.02-0.24,0.02   c-0.67,0-1.2-0.38-1.2-1.05c0-0.66,0.57-1.06,1.24-1.06c0.15,0,0.31,0.02,0.46,0.07h1L57.28,52.06L57.28,52.06z"></path>
	<path class="st0" d="M58.43,52.98h1.48C59.89,52.24,59.73,52,59.25,52C58.76,52,58.47,52.22,58.43,52.98L58.43,52.98z M60.21,54.31   l0.13,0.38c-0.34,0.16-0.69,0.22-1.04,0.22c-0.98,0-1.4-0.49-1.4-1.6c0-1.24,0.54-1.73,1.39-1.73c0.73,0,1.09,0.43,1.14,1.25   c0.01,0.2,0.01,0.35,0.01,0.55h-2c0.03,0.82,0.32,1.09,0.89,1.09C59.69,54.47,59.94,54.42,60.21,54.31L60.21,54.31z"></path>
	<path class="st0" d="M65.73,52.94v1.88H65.2v-1.94c0-0.64-0.22-0.87-0.72-0.87c-0.28,0-0.52,0.1-0.73,0.3l0.02,0.14   c0.01,0.14,0.01,0.29,0.01,0.49v1.88h-0.53v-1.94c0-0.64-0.22-0.87-0.72-0.87c-0.27,0-0.5,0.08-0.7,0.26v2.56H61.3v-3.16l0.53-0.06   v0.27c0.26-0.19,0.57-0.3,0.91-0.3c0.42,0,0.74,0.1,0.91,0.41c0.29-0.26,0.65-0.41,1.04-0.41c0.59,0,0.97,0.21,1.03,0.87   C65.73,52.59,65.73,52.73,65.73,52.94L65.73,52.94z"></path>
	<path class="st0" d="M67.03,52.98h1.48C68.48,52.24,68.33,52,67.84,52C67.35,52,67.06,52.22,67.03,52.98L67.03,52.98z M68.8,54.31   l0.13,0.38c-0.34,0.16-0.69,0.22-1.04,0.22c-0.98,0-1.4-0.49-1.4-1.6c0-1.24,0.54-1.73,1.39-1.73c0.73,0,1.09,0.43,1.14,1.25   c0.01,0.2,0.01,0.35,0.01,0.55h-2c0.03,0.82,0.32,1.09,0.89,1.09C68.28,54.47,68.53,54.42,68.8,54.31L68.8,54.31z"></path>
	<path class="st0" d="M69.89,51.66l0.53-0.06v3.22h-0.53V51.66L69.89,51.66z M69.89,50.47c0.13-0.04,0.4-0.04,0.53,0v0.49   c-0.13,0.04-0.4,0.04-0.53,0V50.47L69.89,50.47z"></path>
	<path class="st0" d="M74.04,52.94v1.88h-0.53v-1.94c0-0.64-0.22-0.87-0.72-0.87c-0.3,0-0.55,0.12-0.76,0.35v2.47h-0.53v-3.16   l0.53-0.06v0.32c0.27-0.22,0.61-0.34,0.97-0.34c0.59,0,0.98,0.21,1.03,0.87C74.04,52.59,74.04,52.73,74.04,52.94L74.04,52.94z"></path>
	<path class="st0" d="M77.57,52.94v1.88h-0.53v-1.94c0-0.64-0.22-0.87-0.72-0.87c-0.3,0-0.55,0.12-0.76,0.35v2.47h-0.53v-3.16   l0.53-0.06v0.32c0.27-0.22,0.61-0.34,0.97-0.34c0.59,0,0.98,0.21,1.03,0.87C77.57,52.59,77.57,52.73,77.57,52.94L77.57,52.94z"></path>
	<path class="st0" d="M79.96,50.96v-0.49c0.13-0.04,0.4-0.04,0.53,0v0.49C80.37,51,80.1,51,79.96,50.96L79.96,50.96z M78.99,50.96   v-0.49c0.13-0.04,0.4-0.04,0.53,0v0.49C79.39,51,79.13,51,78.99,50.96L78.99,50.96z M80.97,51.63v3.19h-0.53v-0.27   c-0.26,0.22-0.61,0.33-0.97,0.33c-0.59,0-0.98-0.27-1.03-0.93c-0.01-0.14-0.01-0.29-0.01-0.49v-1.77l0.53-0.06v1.96   c0,0.64,0.22,0.87,0.69,0.87c0.3,0,0.55-0.1,0.78-0.32v-2.45L80.97,51.63L80.97,51.63z"></path>
	<path class="st0" d="M83.69,54.74c-0.19,0.1-0.41,0.16-0.7,0.16c-0.5,0-0.73-0.28-0.76-0.64c-0.01-0.16-0.01-0.33-0.01-0.5v-1.7   h-0.46v-0.4h0.46v-0.7l0.53-0.08v0.79h0.91l-0.05,0.4h-0.86v1.73c0,0.52,0.1,0.67,0.47,0.67c0.1,0,0.21-0.02,0.36-0.07L83.69,54.74   L83.69,54.74z"></path>
	<polygon class="st0" points="86.73,54.42 86.68,54.82 84.23,54.82 84.23,54.53 85.86,52.06 84.39,52.06 84.39,51.66 86.53,51.66    86.53,51.94 84.92,54.42 86.73,54.42  "></polygon>
	<path class="st0" d="M87.47,51.66L88,51.6v3.22h-0.53V51.66L87.47,51.66z M87.47,50.47c0.13-0.04,0.4-0.04,0.53,0v0.49   c-0.13,0.04-0.4,0.04-0.53,0V50.47L87.47,50.47z"></path>
	<path class="st0" d="M90.1,53.29c0.33,0,0.67-0.19,0.67-0.66c0-0.46-0.33-0.64-0.66-0.64c-0.33,0-0.7,0.19-0.7,0.66   C89.41,53.1,89.76,53.29,90.1,53.29L90.1,53.29z M90.91,55.07c0-0.21-0.06-0.38-0.2-0.51c-0.18-0.06-0.38-0.08-0.54-0.08   c-0.57,0-0.92,0.19-0.92,0.65c0,0.4,0.3,0.6,0.82,0.6C90.64,55.73,90.91,55.44,90.91,55.07L90.91,55.07z M91.54,52.06h-0.39   c0.1,0.16,0.15,0.34,0.15,0.57c0,0.36-0.18,0.66-0.46,0.84c-0.08,0.1-0.12,0.21-0.12,0.3c0,0.13,0.07,0.25,0.22,0.36   c0.36,0.28,0.53,0.56,0.53,0.92c0,0.67-0.55,1.09-1.41,1.09c-0.79,0-1.32-0.29-1.32-0.97c0-0.73,0.6-1.06,1.22-1.06   c0.15,0,0.27,0.01,0.38,0.05c-0.05-0.07-0.07-0.15-0.07-0.24c0-0.08,0.02-0.18,0.09-0.27c-0.07,0.01-0.16,0.02-0.24,0.02   c-0.67,0-1.2-0.38-1.2-1.05c0-0.66,0.56-1.06,1.24-1.06c0.15,0,0.31,0.02,0.46,0.07h1L91.54,52.06L91.54,52.06z"></path>
	<path class="st0" d="M92.69,52.98h1.48C94.14,52.24,93.99,52,93.5,52C93.01,52,92.73,52.22,92.69,52.98L92.69,52.98z M94.46,54.31   l0.13,0.38c-0.34,0.16-0.69,0.22-1.05,0.22c-0.98,0-1.4-0.49-1.4-1.6c0-1.24,0.54-1.73,1.39-1.73c0.74,0,1.09,0.43,1.14,1.25   c0.01,0.2,0.01,0.35,0.01,0.55h-2c0.03,0.82,0.32,1.09,0.89,1.09C93.94,54.47,94.2,54.42,94.46,54.31L94.46,54.31z"></path>
	<path class="st0" d="M99.52,52.68h0.55v1.91c-0.39,0.21-0.78,0.31-1.4,0.31c-1.18,0-2.06-0.71-2.06-2.26c0-1.6,0.98-2.4,2.22-2.4   c0.58,0,0.98,0.09,1.31,0.27l-0.16,0.43c-0.29-0.14-0.64-0.21-1.15-0.21c-0.95,0-1.62,0.61-1.62,1.85c0,1.26,0.65,1.84,1.55,1.84   c0.32,0,0.53-0.03,0.77-0.13V52.68L99.52,52.68z"></path>
	<path class="st0" d="M105.5,52.94v1.88h-0.54v-1.94c0-0.64-0.22-0.87-0.72-0.87c-0.28,0-0.52,0.1-0.73,0.3l0.02,0.14   c0.01,0.14,0.01,0.29,0.01,0.49v1.88h-0.53v-1.94c0-0.64-0.22-0.87-0.72-0.87c-0.27,0-0.5,0.08-0.7,0.26v2.56h-0.53v-3.16   l0.53-0.06v0.27c0.26-0.19,0.57-0.3,0.91-0.3c0.42,0,0.74,0.1,0.9,0.41c0.29-0.26,0.65-0.41,1.05-0.41c0.59,0,0.97,0.21,1.03,0.87   C105.5,52.59,105.5,52.73,105.5,52.94L105.5,52.94z"></path>
	<path class="st0" d="M108.57,53.24c0-0.89-0.33-1.24-1.04-1.24c-0.2,0-0.35,0.01-0.52,0.04v2.38c0.27,0.05,0.42,0.06,0.6,0.06   C108.25,54.48,108.57,54.08,108.57,53.24L108.57,53.24z M109.13,53.14c0,1.12-0.5,1.77-1.57,1.77c-0.43,0-0.72-0.05-1.08-0.16   v-4.48l0.53-0.06v1.41c0.2-0.03,0.41-0.04,0.66-0.04C108.54,51.58,109.13,51.98,109.13,53.14L109.13,53.14z"></path>
	<polygon class="st0" points="109.96,50.33 110.5,50.33 110.5,52.33 112.93,52.33 112.93,50.33 113.48,50.33 113.48,54.82    112.93,54.82 112.93,52.78 110.5,52.78 110.5,54.82 109.96,54.82 109.96,50.33  "></polygon>
</g>
</svg>
